<svg width="38" height="30" viewBox="0 0 38 30" fill="none" xmlns="http://www.w3.org/2000/svg">
<path d="M36.5778 14.9744C36.5778 22.6909 28.6405 28.9488 18.8473 28.9488C9.05407 28.9488 1.1167 22.6909 1.1167 14.9744C1.1167 7.25791 9.05407 1 18.8473 1C28.6405 1 36.5778 7.25791 36.5778 14.9744Z" fill="white"/>
<path d="M36.6592 14.9746C36.6592 22.6658 28.6841 28.9013 18.8473 28.9013C9.01053 28.9013 1.0354 22.6658 1.0354 14.9746C1.0354 7.28332 9.01053 1.04785 18.8473 1.04785C28.6841 1.04785 36.6592 7.28332 36.6592 14.9746Z" stroke="#223E87"/>
<path d="M31.8992 14.9744C31.8992 20.2618 26.0529 24.545 18.8445 24.545C11.6361 24.545 5.78687 20.2618 5.78687 14.9744C5.78687 9.68701 11.6332 5.40381 18.8445 5.40381C26.0558 5.40381 31.8992 9.68982 31.8992 14.9744Z" fill="#223E87"/>
<path d="M34.7946 13.9171C34.7946 14.2396 34.5129 14.5005 34.1644 14.5005C33.8159 14.5005 33.5342 14.2396 33.5342 13.9171C33.5342 13.5945 33.8159 13.3364 34.1644 13.3364C34.5129 13.3364 34.7946 13.5973 34.7946 13.9171Z" fill="#223E87"/>
<path d="M4.32295 13.9171C4.32295 14.2396 4.04124 14.5005 3.69273 14.5005C3.34421 14.5005 3.0625 14.2396 3.0625 13.9171C3.0625 13.5945 3.34421 13.3364 3.69273 13.3364C4.04124 13.3364 4.32295 13.5973 4.32295 13.9171Z" fill="#223E87"/>
<path d="M16.4978 22.7692V22.657C16.6198 22.6458 16.704 22.629 16.7534 22.6037C16.8027 22.5813 16.8376 22.5224 16.8608 22.4326H16.9944V23.5883H16.8114V22.7664H16.4949L16.4978 22.7692Z" fill="white"/>
<path d="M18.1677 23.0695C18.0748 23.0695 18.0051 23.047 17.9644 23.005C17.9209 22.9601 17.9005 22.9012 17.9005 22.8254C17.9005 22.7497 17.9238 22.6824 17.9732 22.6347C18.0225 22.587 18.0864 22.5646 18.1706 22.5646C18.2462 22.5646 18.313 22.5842 18.3623 22.6235C18.4117 22.6656 18.4378 22.7301 18.4378 22.8142C18.4378 22.9096 18.4088 22.9741 18.3536 23.0134C18.2984 23.0498 18.2345 23.0695 18.1677 23.0695ZM17.7408 23.3079C17.7408 23.3948 17.7757 23.4706 17.8425 23.5323C17.9122 23.5912 18.0109 23.6221 18.1445 23.6221C18.342 23.6221 18.4814 23.5295 18.5627 23.35C18.6121 23.2406 18.6382 23.1172 18.6382 22.9741C18.6382 22.8479 18.6179 22.7441 18.5743 22.6627C18.5017 22.5113 18.3652 22.4355 18.1677 22.4355C18.0225 22.4355 17.9122 22.4748 17.8367 22.5534C17.7611 22.6319 17.7234 22.7245 17.7234 22.831C17.7234 22.9376 17.7611 23.0302 17.8367 23.0975C17.9122 23.1676 18.0167 23.2013 18.1445 23.2013C18.2084 23.2013 18.2694 23.1901 18.3246 23.1705C18.3798 23.1508 18.4291 23.1144 18.464 23.0639C18.4407 23.2434 18.4001 23.3584 18.342 23.4173C18.2839 23.4762 18.2142 23.5042 18.1329 23.5042C18.0893 23.5042 18.0516 23.4958 18.0167 23.479C17.9499 23.4481 17.9122 23.392 17.9093 23.3135H17.7408V23.3079Z" fill="white"/>
<path d="M19.5529 23.4876C19.4629 23.4876 19.3932 23.4624 19.3438 23.4147C19.2944 23.3642 19.2683 23.3053 19.2683 23.2324C19.2683 23.151 19.2973 23.0865 19.3525 23.0473C19.4077 23.0052 19.4716 22.9856 19.5471 22.9856C19.6546 22.9856 19.7243 23.0136 19.7649 23.0669C19.8027 23.1202 19.823 23.1763 19.823 23.2352C19.823 23.3053 19.8027 23.3642 19.7562 23.4147C19.7126 23.4652 19.6429 23.4904 19.5529 23.4904V23.4876ZM19.5674 22.4246C19.3583 22.4246 19.2102 22.5199 19.1318 22.7135C19.0911 22.8144 19.0708 22.9351 19.0708 23.0809C19.0708 23.2745 19.1173 23.4147 19.2073 23.4961C19.3002 23.5774 19.4106 23.6195 19.5384 23.6195C19.6865 23.6195 19.7998 23.5802 19.8811 23.4989C19.9624 23.4175 20.0002 23.325 20.0002 23.2184C20.0002 23.0977 19.9566 23.0024 19.8724 22.9407C19.7882 22.879 19.6894 22.8481 19.5732 22.8481C19.5064 22.8481 19.4455 22.8593 19.3932 22.879C19.3322 22.9042 19.2857 22.9407 19.2451 22.9884C19.2509 22.8481 19.2828 22.7415 19.3409 22.663C19.3961 22.5872 19.4745 22.548 19.5703 22.548C19.6546 22.548 19.7155 22.5732 19.7591 22.6209C19.7823 22.649 19.7969 22.6826 19.8085 22.7275H19.9798C19.9798 22.6574 19.9479 22.5872 19.8898 22.5199C19.8288 22.4526 19.7243 22.4189 19.5703 22.4189L19.5674 22.4246Z" fill="white"/>
<path d="M20.857 23.0695C20.764 23.0695 20.6943 23.047 20.6507 23.005C20.6072 22.9601 20.5869 22.9012 20.5869 22.8254C20.5869 22.7497 20.6101 22.6824 20.6595 22.6347C20.7088 22.587 20.7756 22.5646 20.857 22.5646C20.9354 22.5646 20.9964 22.5842 21.0486 22.6235C21.098 22.6656 21.1241 22.7301 21.1241 22.8142C21.1241 22.9096 21.0951 22.9741 21.0399 23.0134C20.9847 23.0498 20.9208 23.0695 20.854 23.0695H20.857ZM20.4271 23.3079C20.4271 23.3948 20.4591 23.4706 20.5288 23.5323C20.5985 23.5912 20.6972 23.6221 20.8308 23.6221C21.0283 23.6221 21.1648 23.5295 21.249 23.35C21.2984 23.2406 21.3216 23.1172 21.3216 22.9741C21.3216 22.8479 21.3013 22.7441 21.2606 22.6627C21.1851 22.5113 21.0515 22.4355 20.854 22.4355C20.7088 22.4355 20.5985 22.4748 20.523 22.5534C20.4474 22.6319 20.4126 22.7245 20.4126 22.831C20.4126 22.9376 20.4504 23.0302 20.5259 23.0975C20.6014 23.1676 20.7059 23.2013 20.8366 23.2013C20.9005 23.2013 20.9615 23.1901 21.0167 23.1705C21.0719 23.1508 21.1212 23.1144 21.1561 23.0639C21.1329 23.2434 21.0893 23.3584 21.0341 23.4173C20.976 23.4762 20.9063 23.5042 20.825 23.5042C20.7814 23.5042 20.7408 23.4958 20.7059 23.479C20.6391 23.4481 20.6014 23.392 20.5985 23.3135H20.43L20.4271 23.3079Z" fill="white"/>
<path d="M3.14105 15.2183C3.14105 15.2183 2.6967 16.8339 3.63478 17.667C3.63478 17.667 4.02105 16.416 3.14105 15.2183Z" fill="#223E87"/>
<path d="M2.13892 17.0923C2.13892 17.0923 2.81271 18.6406 4.0993 18.8033C4.0993 18.8033 3.61429 17.5804 2.13892 17.0923Z" fill="#223E87"/>
<path d="M4.59901 16.5732C4.59901 16.5732 4.96785 18.0346 4.10819 18.7695C4.10819 18.7695 3.78291 17.6363 4.59901 16.5732Z" fill="#223E87"/>
<path d="M2.63281 18.6123C2.63281 18.6123 3.51571 20.0653 4.81682 20.0737C4.81682 20.0737 4.16336 18.9209 2.63281 18.6123Z" fill="#223E87"/>
<path d="M5.00257 17.8018C5.00257 17.8018 5.5718 19.2071 4.8225 20.0373C4.8225 20.0373 4.3433 18.9546 5.00257 17.8018Z" fill="#223E87"/>
<path d="M3.3645 20.1245C3.3645 20.1245 4.44489 21.4625 5.73439 21.3138C5.73439 21.3138 4.927 20.2479 3.3645 20.1245Z" fill="#223E87"/>
<path d="M5.5979 19.0391C5.5979 19.0391 6.35882 20.3658 5.73149 21.2774C5.73149 21.2774 5.10417 20.2592 5.5979 19.0391Z" fill="#223E87"/>
<path d="M4.30566 21.5185C4.30566 21.5185 5.58935 22.691 6.84109 22.3656C6.84109 22.3656 5.86816 21.4231 4.30566 21.5185Z" fill="#223E87"/>
<path d="M6.3385 20.1382C6.3385 20.1382 7.30562 21.3443 6.83513 22.3317C6.83513 22.3317 6.04808 21.4144 6.3385 20.1382Z" fill="#223E87"/>
<path d="M5.43237 22.7837C5.43237 22.7837 6.85547 23.8103 8.05783 23.3503C8.05783 23.3503 6.97164 22.52 5.43237 22.7837Z" fill="#223E87"/>
<path d="M7.27661 21.1929C7.27661 21.1929 8.39185 22.2868 8.04624 23.319C8.04624 23.319 7.15172 22.4888 7.27661 21.1929Z" fill="#223E87"/>
<path d="M6.73364 23.9141C6.73364 23.9141 8.26419 24.8005 9.40848 24.2283C9.40848 24.2283 8.23805 23.5046 6.73364 23.9141Z" fill="#223E87"/>
<path d="M8.38892 22.1553C8.38892 22.1553 9.62033 23.137 9.39379 24.1973C9.39379 24.1973 8.40925 23.4596 8.38892 22.1553Z" fill="#223E87"/>
<path d="M8.06372 24.8675C8.06372 24.8675 9.69011 25.5912 10.7589 24.9067C10.7589 24.9067 9.50714 24.3065 8.06372 24.8675Z" fill="#223E87"/>
<path d="M9.52173 25.6893C9.52173 25.6893 11.2178 26.2587 12.2082 25.4789C12.2082 25.4789 10.8984 24.9964 9.52173 25.6893Z" fill="#223E87"/>
<path d="M11.1277 26.385C11.1277 26.385 12.8761 26.8086 13.7822 25.9475C13.7822 25.9475 12.4317 25.58 11.1277 26.385Z" fill="#223E87"/>
<path d="M12.8152 26.9461C12.8152 26.9461 14.5926 27.2322 15.4203 26.3066C15.4203 26.3066 14.0408 26.0457 12.8152 26.9461Z" fill="#223E87"/>
<path d="M13.6311 24.7388C13.6311 24.7388 15.1704 25.2212 15.394 26.2815C15.394 26.2815 14.18 25.9393 13.6311 24.7388Z" fill="#223E87"/>
<path d="M14.636 27.4423C14.636 27.4423 16.4395 27.5321 17.1424 26.5251C17.1424 26.5251 15.7396 26.4129 14.636 27.4423Z" fill="#223E87"/>
<path d="M15.1675 25.165C15.1675 25.165 16.759 25.4736 17.1133 26.5058C17.1133 26.5058 15.8645 26.2983 15.1675 25.165Z" fill="#223E87"/>
<path d="M16.3669 27.622C16.3669 27.622 18.1705 27.5827 18.7862 26.5225C18.7862 26.5225 17.3776 26.514 16.3669 27.622Z" fill="#223E87"/>
<path d="M16.6982 25.3081C16.6982 25.3081 18.3101 25.4988 18.7545 26.5002C18.7545 26.5002 17.494 26.3824 16.6982 25.3081Z" fill="#223E87"/>
<path d="M34.5508 15.2661C34.5508 15.2661 34.9952 16.8818 34.0571 17.7177C34.0571 17.7177 33.6708 16.4666 34.5508 15.2661Z" fill="#223E87"/>
<path d="M35.5526 17.1396C35.5526 17.1396 34.8789 18.688 33.5894 18.8479C33.5894 18.8479 34.0744 17.6277 35.5526 17.1396Z" fill="#223E87"/>
<path d="M33.0899 16.6211C33.0899 16.6211 32.7211 18.0825 33.5807 18.8174C33.5807 18.8174 33.906 17.6842 33.0899 16.6211Z" fill="#223E87"/>
<path d="M35.0561 18.6572C35.0561 18.6572 34.1732 20.113 32.8721 20.1186C32.8721 20.1186 33.5255 18.9658 35.0561 18.6572Z" fill="#223E87"/>
<path d="M32.689 17.8496C32.689 17.8496 32.1197 19.2549 32.869 20.0852C32.869 20.0852 33.3482 18.9997 32.689 17.8496Z" fill="#223E87"/>
<path d="M34.3272 20.1719C34.3272 20.1719 33.2468 21.507 31.9573 21.3612C31.9573 21.3612 32.7647 20.2925 34.3272 20.1719Z" fill="#223E87"/>
<path d="M32.0937 19.0864C32.0937 19.0864 31.3328 20.4104 31.9601 21.3248C31.9601 21.3248 32.5874 20.3066 32.0937 19.0864Z" fill="#223E87"/>
<path d="M33.386 21.5663C33.386 21.5663 32.1023 22.7388 30.8506 22.4135C30.8506 22.4135 31.8206 21.471 33.386 21.5663Z" fill="#223E87"/>
<path d="M31.3531 20.1831C31.3531 20.1831 30.3831 21.3864 30.8565 22.3766C30.8565 22.3766 31.6406 21.4566 31.3531 20.1831Z" fill="#223E87"/>
<path d="M32.2593 22.831C32.2593 22.831 30.8362 23.8576 29.6338 23.4004C29.6338 23.4004 30.7171 22.5701 32.2593 22.831Z" fill="#223E87"/>
<path d="M30.4149 21.2407C30.4149 21.2407 29.2997 22.3347 29.6453 23.3669C29.6453 23.3669 30.5427 22.5366 30.4149 21.2407Z" fill="#223E87"/>
<path d="M30.958 23.9585C30.958 23.9585 29.4275 24.8421 28.2832 24.2727C28.2832 24.2727 29.4536 23.549 30.958 23.9585Z" fill="#223E87"/>
<path d="M29.3027 22.2002C29.3027 22.2002 28.0713 23.1819 28.2978 24.2422C28.2978 24.2422 29.2824 23.5045 29.3027 22.2002Z" fill="#223E87"/>
<path d="M29.628 24.9124C29.628 24.9124 28.0016 25.6361 26.9329 24.9517C26.9329 24.9517 28.1817 24.3514 29.628 24.9124Z" fill="#223E87"/>
<path d="M28.1701 25.7344C28.1701 25.7344 26.474 26.3038 25.4836 25.5268C25.4836 25.5268 26.7935 25.0443 28.1701 25.7344Z" fill="#223E87"/>
<path d="M26.5669 26.4329C26.5669 26.4329 24.8214 26.8564 23.9124 25.9953C23.9124 25.9953 25.2628 25.6279 26.5669 26.4329Z" fill="#223E87"/>
<path d="M24.8766 26.9908C24.8766 26.9908 23.0992 27.2769 22.2715 26.3513C22.2715 26.3513 23.651 26.0876 24.8766 26.9908Z" fill="#223E87"/>
<path d="M24.0605 24.7861C24.0605 24.7861 22.5212 25.2686 22.2976 26.3289C22.2976 26.3289 23.5116 25.9867 24.0605 24.7861Z" fill="#223E87"/>
<path d="M23.0555 27.4903C23.0555 27.4903 21.2519 27.58 20.5491 26.5703C20.5491 26.5703 21.9518 26.4609 23.0555 27.4903Z" fill="#223E87"/>
<path d="M22.5269 25.2124C22.5269 25.2124 20.9354 25.5209 20.5781 26.5504C20.5781 26.5504 21.827 26.3428 22.5269 25.2124Z" fill="#223E87"/>
<path d="M21.3245 27.6669C21.3245 27.6669 19.521 27.6249 18.9053 26.5674C18.9053 26.5674 20.3138 26.5618 21.3245 27.6669Z" fill="#223E87"/>
<path d="M20.9935 25.3555C20.9935 25.3555 19.3816 25.5462 18.9373 26.5476C18.9373 26.5476 20.1977 26.4326 20.9935 25.3555Z" fill="#223E87"/>
<path d="M5.90303 10.4528L5.78976 10.3743C5.83623 10.307 5.86527 10.2649 5.87399 10.2481C5.8827 10.2313 5.8856 10.2172 5.8827 10.206C5.8827 10.1948 5.87689 10.1836 5.86818 10.1723C5.84785 10.1471 5.79267 10.105 5.70263 10.0405L5.45577 9.86099L4.8662 9.45147L4.61353 9.28317C4.5206 9.21865 4.4567 9.18219 4.42766 9.17097C4.41314 9.16536 4.40152 9.16536 4.3899 9.16536C4.37829 9.16536 4.36667 9.17377 4.35215 9.1878C4.33763 9.19902 4.30278 9.23829 4.2534 9.3028L4.14014 9.22426C4.23307 9.11487 4.32601 8.99706 4.42185 8.86803C4.50898 8.75303 4.57868 8.64924 4.63967 8.55668L4.75294 8.63522C4.70066 8.71376 4.66871 8.76144 4.66291 8.77547C4.6571 8.7923 4.65419 8.80632 4.66291 8.81754C4.66581 8.82876 4.69195 8.85401 4.74132 8.89047C4.82264 8.95499 4.94172 9.04474 5.10145 9.15694L5.24666 9.25792C5.29313 9.21024 5.37445 9.10645 5.49643 8.94377C5.65036 8.739 5.74039 8.60997 5.76943 8.55668L5.62712 8.4557C5.49643 8.36594 5.41221 8.30703 5.37445 8.2846C5.25828 8.21167 5.19439 8.1724 5.17696 8.16679C5.16534 8.16118 5.15663 8.15837 5.14792 8.16118C5.13921 8.16118 5.12759 8.16679 5.11597 8.17801C5.10145 8.18923 5.0666 8.2313 5.00561 8.30423L4.89234 8.22569C4.96495 8.14154 5.04336 8.04337 5.12759 7.92836C5.22343 7.79933 5.31056 7.67591 5.38897 7.55811L5.50224 7.63665C5.45577 7.70396 5.42673 7.74604 5.42092 7.76287C5.41221 7.7797 5.4093 7.79372 5.41221 7.80494C5.41221 7.81616 5.41802 7.82738 5.42963 7.8386C5.44996 7.86385 5.50514 7.90873 5.59518 7.97324L5.84204 8.15276L6.43161 8.56229L6.68137 8.72778C6.77431 8.7923 6.8382 8.82876 6.86725 8.83998C6.88177 8.84559 6.89338 8.84559 6.905 8.84559C6.91662 8.84559 6.92824 8.83718 6.94276 8.82315C6.95728 8.81193 6.98923 8.77266 7.0415 8.70815L7.15477 8.78669C7.06183 8.89608 6.9689 9.0167 6.87306 9.14292C6.78883 9.25792 6.71622 9.3589 6.65524 9.45427L6.54197 9.37573C6.59424 9.29719 6.62619 9.24951 6.632 9.23268C6.63781 9.21585 6.64071 9.20182 6.63491 9.1906C6.632 9.17938 6.60586 9.15414 6.55649 9.11487C6.47517 9.05035 6.35319 8.9634 6.19346 8.8512L5.93207 8.66888C5.89722 8.69973 5.81881 8.80071 5.69102 8.97182C5.56904 9.1345 5.48772 9.2439 5.44996 9.3C5.43544 9.32244 5.42092 9.34768 5.4093 9.37012L5.67069 9.55245C5.80138 9.6422 5.8856 9.6983 5.92626 9.72074C6.04243 9.79367 6.10923 9.83294 6.12375 9.84136C6.13537 9.84416 6.14408 9.84697 6.1528 9.84697C6.16151 9.84697 6.17313 9.84136 6.18474 9.83294C6.19636 9.82453 6.23412 9.78245 6.2922 9.70952L6.40547 9.78806C6.33286 9.87221 6.25445 9.97039 6.16732 10.0854C6.07148 10.2116 5.98435 10.3378 5.90593 10.4556L5.90303 10.4528Z" fill="#223E87"/>
<path d="M7.20995 8.76693L7.15186 8.71083C7.16929 8.65473 7.178 8.60424 7.178 8.55936C7.15186 8.5257 7.10539 8.47521 7.0386 8.40789C6.91662 8.28167 6.82658 8.19191 6.7714 8.13581L6.27477 7.66177C6.25444 7.64213 6.18184 7.57762 6.05405 7.46262C5.96982 7.38408 5.91464 7.3392 5.8885 7.33078C5.87689 7.32798 5.86818 7.32517 5.85656 7.33078C5.83042 7.3392 5.78105 7.37566 5.70263 7.44018L5.61841 7.36164L5.83332 7.14565C5.87689 7.10358 5.91755 7.0615 5.95821 7.02223C6.04534 6.93808 6.13827 6.84272 6.24283 6.73613L6.4287 6.54539C6.45193 6.52295 6.4984 6.48087 6.57101 6.41636C6.57682 6.41075 6.59134 6.40233 6.60876 6.39111L6.62909 6.39953L6.7714 6.56783C6.7714 6.56783 6.83239 6.63234 6.91952 6.72771L6.84691 6.80064C6.75979 6.7193 6.7017 6.67161 6.67847 6.65759C6.66685 6.64917 6.65523 6.64637 6.64652 6.64637C6.632 6.64637 6.60005 6.666 6.55358 6.70247C6.48388 6.75576 6.41708 6.81186 6.359 6.87076C6.30382 6.92406 6.24863 6.98296 6.19636 7.04748C6.27187 7.13443 6.37352 7.23822 6.50131 7.36164L6.72784 7.57762C6.77721 7.54115 6.82368 7.50189 6.87015 7.4542C6.88467 7.44018 6.93695 7.38688 7.02117 7.29712C7.05602 7.26346 7.07054 7.24102 7.07345 7.2298C7.07345 7.21858 7.07345 7.20736 7.06473 7.19334C7.0444 7.15968 7.00084 7.10919 6.93695 7.04748L7.01246 6.97174L7.25061 7.20736L7.49747 7.43176L7.42196 7.5075C7.33774 7.42615 7.27965 7.38127 7.25061 7.37005C7.22737 7.36444 7.20414 7.37005 7.18091 7.38408C7.12863 7.42054 7.06764 7.47103 7.00084 7.53835C6.93985 7.60006 6.89048 7.65055 6.85563 7.69543L7.31741 8.13581C7.36968 8.1835 7.41615 8.22557 7.45681 8.25642C7.51199 8.21154 7.57589 8.15545 7.64559 8.08813C7.71239 8.02081 7.77338 7.9591 7.82565 7.89739C7.87793 7.83568 7.90697 7.7936 7.90988 7.77397C7.90988 7.76555 7.90988 7.75714 7.90116 7.74311C7.87793 7.69823 7.82275 7.6225 7.73562 7.51591L7.81113 7.44018C7.94182 7.59164 8.05509 7.71226 8.15093 7.80202V7.82726C8.11898 7.87214 8.0638 7.93105 7.9912 8.00398L7.83437 8.14703C7.68044 8.29289 7.57589 8.39106 7.52071 8.44716C7.50618 8.46119 7.40453 8.56778 7.21285 8.76413L7.20995 8.76693Z" fill="#223E87"/>
<path d="M8.41509 8.10494L8.4267 8.07128C8.48769 8.07689 8.53416 8.07689 8.56611 8.07128C8.59806 8.06567 8.62419 8.05165 8.64743 8.03482C8.67357 8.01238 8.69099 7.98994 8.6939 7.9647C8.6939 7.93945 8.6939 7.9114 8.67647 7.88335C8.66195 7.8525 8.62129 7.7964 8.55159 7.71225C8.41509 7.54956 8.33958 7.45699 8.32215 7.44016L7.54381 6.53977C7.45958 6.44159 7.38117 6.35183 7.30856 6.2761C7.23886 6.19756 7.19239 6.15548 7.17496 6.14426C7.16625 6.13865 7.15754 6.13585 7.14592 6.13585C7.1314 6.13585 7.11397 6.14146 7.09364 6.15548L6.94843 6.26207L6.8584 6.15829C6.9978 6.05731 7.1343 5.95353 7.2679 5.84413C7.38117 5.75157 7.4741 5.67022 7.54962 5.6001L7.63965 5.70388C7.56994 5.76279 7.53219 5.79925 7.51767 5.81328C7.50315 5.83291 7.49734 5.84974 7.49734 5.86657C7.49734 5.8834 7.50896 5.90865 7.53219 5.9395C7.58156 6.00682 7.65707 6.09377 7.75291 6.20878L8.11595 6.62672L8.54288 7.11479C8.65033 7.23821 8.72584 7.34479 8.76941 7.43455C8.81297 7.52431 8.83911 7.61968 8.85073 7.72347C8.85654 7.79359 8.85363 7.86652 8.84201 7.94226C8.8304 8.01799 8.81297 8.0825 8.78683 8.1386C8.7607 8.1947 8.72875 8.23678 8.6939 8.26483C8.66776 8.28727 8.63581 8.3041 8.59515 8.31532C8.55159 8.26202 8.4935 8.18909 8.41799 8.10214L8.41509 8.10494Z" fill="#223E87"/>
<path d="M7.78208 5.56114L7.70947 5.45736L8.07832 5.23296L8.22643 5.13198L8.37165 5.031L8.41231 5.00295L8.48491 5.10674C8.40359 5.16003 8.35713 5.1993 8.34551 5.23016C8.3397 5.24418 8.3426 5.26382 8.35132 5.28906C8.37746 5.34796 8.45297 5.46297 8.57204 5.63968L8.77244 5.92859L8.87409 6.07445C8.97864 6.22592 9.04544 6.31849 9.07448 6.35215C9.13547 6.42788 9.19646 6.47837 9.25745 6.50642C9.31844 6.53447 9.38814 6.54569 9.46946 6.53728C9.54788 6.52886 9.635 6.4952 9.72504 6.4363C9.82959 6.36898 9.89929 6.29605 9.93414 6.2147C9.969 6.13616 9.97771 6.05482 9.96028 5.97347C9.94286 5.89213 9.87315 5.7631 9.75118 5.58639L9.57401 5.33113C9.42299 5.11235 9.32715 4.98051 9.2894 4.93283C9.21388 4.82904 9.16451 4.77014 9.14418 4.75331C9.12966 4.74209 9.11514 4.73928 9.09771 4.73928C9.06286 4.73928 9.00478 4.76453 8.92636 4.81502L8.85376 4.71123C8.99316 4.62989 9.07448 4.5822 9.10062 4.56538C9.10643 4.56257 9.11514 4.55416 9.12966 4.54574L9.37072 4.37744L9.44332 4.48123C9.37362 4.52611 9.33586 4.55976 9.32425 4.58501C9.32134 4.59623 9.32425 4.61586 9.33006 4.6355C9.33877 4.65794 9.39105 4.74489 9.48689 4.89917C9.58563 5.05344 9.66405 5.17125 9.72213 5.2582L9.92543 5.54992C9.97771 5.62566 10.0271 5.7042 10.0706 5.79115C10.1171 5.87811 10.1433 5.95664 10.1549 6.03238C10.1636 6.10811 10.1578 6.18665 10.1345 6.268C10.1113 6.34934 10.0735 6.42508 10.0155 6.4952C9.95738 6.56533 9.88187 6.63264 9.78312 6.69435C9.66986 6.76728 9.55368 6.82058 9.43171 6.84863C9.34167 6.87107 9.26035 6.87387 9.18484 6.86265C9.10933 6.85143 9.04253 6.82619 8.98445 6.78972C8.92636 6.75326 8.87409 6.71118 8.83633 6.6663C8.81019 6.63825 8.75211 6.55972 8.66207 6.42788L8.49653 6.18665L8.27871 5.86969C8.19739 5.75188 8.12188 5.6509 8.05508 5.56114C8.02604 5.52748 8.00571 5.50224 7.98538 5.49102C7.97376 5.48541 7.95634 5.4798 7.93601 5.47699L7.77627 5.55553L7.78208 5.56114Z" fill="#223E87"/>
<path d="M11.0812 5.85838L11.026 5.73496C11.1015 5.7013 11.148 5.67606 11.1625 5.66764C11.177 5.65642 11.1886 5.6452 11.1916 5.63679C11.1974 5.62557 11.1974 5.61435 11.1945 5.60032C11.1886 5.56947 11.1654 5.50495 11.1219 5.40397L11.0028 5.12908L10.7094 4.48674L10.5788 4.22027C10.5323 4.11929 10.4974 4.05758 10.4771 4.03234C10.4684 4.02112 10.4568 4.0127 10.4481 4.0099C10.4364 4.00709 10.4219 4.00709 10.4045 4.0099C10.3842 4.0127 10.3377 4.02953 10.2593 4.06039L10.2041 3.93697C10.3406 3.88648 10.4829 3.83038 10.6339 3.76867C10.7675 3.71257 10.8837 3.65647 10.9824 3.60598L11.0376 3.7294C10.9505 3.77148 10.9011 3.79672 10.8866 3.80794C10.8721 3.81916 10.8634 3.83038 10.8634 3.8416C10.8634 3.85282 10.8692 3.88648 10.8924 3.94258C10.9273 4.03795 10.9854 4.17539 11.0638 4.3493L11.1364 4.50638C11.2003 4.48674 11.3252 4.43906 11.5139 4.35772C11.7521 4.25674 11.9002 4.18942 11.9525 4.15856L11.8799 4.00148C11.816 3.86123 11.7724 3.77148 11.7521 3.7294C11.6911 3.61159 11.6562 3.54427 11.6446 3.53025C11.6388 3.51903 11.6301 3.51342 11.6214 3.51061C11.6127 3.50781 11.6011 3.50781 11.5836 3.51061C11.5662 3.51061 11.5139 3.53025 11.421 3.56671L11.3658 3.44329C11.4733 3.40683 11.5923 3.36195 11.7259 3.30304C11.8741 3.23853 12.0164 3.17401 12.1471 3.1123L12.2022 3.23292C12.1267 3.26658 12.0803 3.28902 12.0657 3.30024C12.0512 3.31146 12.0396 3.32268 12.0338 3.33109C12.028 3.34231 12.028 3.35353 12.0309 3.36756C12.0367 3.39841 12.0599 3.46573 12.1035 3.56391L12.2226 3.8416L12.5159 4.48113L12.6437 4.74761C12.6902 4.84859 12.725 4.9131 12.7453 4.93554C12.7541 4.94676 12.7657 4.95518 12.7773 4.95798C12.7889 4.96079 12.8034 4.96359 12.8208 4.95798C12.8383 4.95518 12.8876 4.93835 12.9661 4.90469L13.0212 5.02811C12.8847 5.0786 12.7395 5.13469 12.5914 5.1964C12.4578 5.2525 12.3416 5.3086 12.2429 5.35909L12.1877 5.23567C12.2748 5.1936 12.3271 5.16835 12.3387 5.15713C12.3533 5.14591 12.362 5.13469 12.3649 5.12347C12.3649 5.11225 12.3591 5.0786 12.3358 5.01969C12.2981 4.92432 12.24 4.78968 12.1587 4.61297L12.028 4.32686C11.9844 4.33808 11.8595 4.38577 11.662 4.46991C11.4733 4.55126 11.3455 4.60455 11.2816 4.63541C11.2554 4.64663 11.2322 4.66065 11.209 4.67468L11.3397 4.96079C11.4036 5.10384 11.4471 5.1936 11.4733 5.23006C11.5343 5.34787 11.572 5.41519 11.5807 5.42922C11.5894 5.43763 11.5952 5.44324 11.604 5.44885C11.6127 5.45166 11.6243 5.45446 11.6388 5.45166C11.6533 5.45166 11.7085 5.43202 11.7956 5.39836L11.8508 5.52178C11.7434 5.55825 11.6243 5.60593 11.4907 5.66203C11.3426 5.72655 11.2032 5.78825 11.0725 5.85277L11.0812 5.85838Z" fill="#223E87"/>
<path d="M13.3639 3.28585L13.8664 3.94502C13.7909 3.97307 13.7037 4.00112 13.605 4.02917C13.5034 4.06003 13.4104 4.08247 13.3291 4.0993L13.3639 3.28305V3.28585ZM13.2913 4.94921L13.5905 4.87628L13.5527 4.75566C13.4511 4.78091 13.3843 4.78932 13.361 4.78371C13.3436 4.7781 13.332 4.76408 13.3262 4.74164C13.3175 4.70798 13.3117 4.62102 13.3146 4.47797L13.3204 4.29004L13.9826 4.0993L14.1917 4.3826C14.2294 4.43029 14.2498 4.46675 14.2585 4.492C14.2643 4.51163 14.2614 4.52566 14.2498 4.53968C14.2381 4.5509 14.183 4.57334 14.0813 4.6098L14.1191 4.73042L14.5692 4.58736L14.9323 4.4948L14.8945 4.37419C14.8684 4.3798 14.848 4.3826 14.8364 4.3826C14.7958 4.39102 14.7696 4.39663 14.758 4.39382C14.7464 4.39382 14.7348 4.38821 14.7261 4.38541C14.7144 4.3798 14.7028 4.36858 14.6912 4.35455L14.5983 4.23674L14.4589 4.06283L13.4191 2.73047L13.2391 2.78096L13.2274 3.14L13.1752 4.16101C13.1665 4.35455 13.1577 4.48358 13.1548 4.54809C13.1432 4.68834 13.1374 4.76969 13.1316 4.79213C13.1287 4.81457 13.1229 4.8314 13.1142 4.84262C13.1084 4.85384 13.0997 4.86506 13.0851 4.87347C13.0735 4.88189 13.0329 4.89872 12.9661 4.92396L13.0038 5.04458L13.2972 4.94921H13.2913Z" fill="#223E87"/>
<path d="M15.0282 4.48377L15.0137 4.40804C15.034 4.39401 15.063 4.36877 15.1008 4.3323C15.1182 4.31828 15.1269 4.30425 15.1298 4.29584C15.1327 4.29023 15.1327 4.28462 15.1298 4.27901C15.1298 4.25376 15.1182 4.164 15.0921 4.01534C15.0659 3.86387 15.0311 3.68155 14.9904 3.47117C14.9294 3.15982 14.8917 2.96908 14.8742 2.89896C14.8365 2.71383 14.8075 2.61005 14.7958 2.5848C14.79 2.57358 14.7813 2.56517 14.7726 2.56236C14.7494 2.55114 14.6797 2.55395 14.5635 2.57078L14.5374 2.43894C14.6506 2.42772 14.7784 2.40809 14.9236 2.38004C15.0834 2.34918 15.2344 2.31833 15.3767 2.28467L15.4028 2.4165C15.3012 2.43894 15.2431 2.46138 15.2228 2.47821C15.214 2.48663 15.2082 2.49785 15.2082 2.51187C15.2082 2.5259 15.214 2.58761 15.2315 2.697C15.2489 2.80639 15.275 2.94103 15.307 3.10653C15.3099 3.12336 15.3389 3.26641 15.3912 3.53008C15.4203 3.67033 15.4493 3.80777 15.4754 3.94802C15.5045 4.08546 15.5219 4.16961 15.5277 4.19766C15.6497 4.18364 15.7339 4.17242 15.7775 4.164C15.9111 4.13876 16.0243 4.1079 16.1202 4.07144C16.155 4.06022 16.1754 4.049 16.1812 4.04058C16.187 4.03217 16.1899 4.01254 16.1928 3.98168C16.1928 3.90314 16.1928 3.81619 16.1928 3.71521L16.3031 3.69557C16.3031 3.72362 16.3061 3.74045 16.309 3.74606L16.3322 4.049C16.3438 4.14437 16.3496 4.20047 16.3554 4.2173C16.3293 4.23132 16.3061 4.23974 16.2799 4.24815C16.2276 4.26218 16.1434 4.27901 16.0331 4.30145C16.0185 4.30145 15.914 4.32108 15.7223 4.35194C15.5771 4.37438 15.4754 4.39121 15.4173 4.40243C15.3302 4.41645 15.1995 4.4445 15.0253 4.48658L15.0282 4.48377Z" fill="#223E87"/>
<path d="M16.5413 4.22038L16.5326 4.14465C16.5558 4.13062 16.5877 4.10818 16.6255 4.07733C16.6429 4.0633 16.6545 4.05208 16.6574 4.04367C16.6604 4.03806 16.6633 4.03245 16.6633 4.02684C16.6633 4.00159 16.6604 3.91183 16.6487 3.76036C16.6371 3.6089 16.6168 3.42377 16.5965 3.21059C16.5645 2.89643 16.5442 2.70289 16.5326 2.62996C16.5093 2.44483 16.4919 2.33824 16.4832 2.31019C16.4774 2.29897 16.4716 2.29056 16.46 2.28495C16.4367 2.27092 16.367 2.26812 16.2508 2.27373L16.2363 2.14189C16.3496 2.14189 16.4803 2.13067 16.6255 2.11665C16.7881 2.10262 16.9421 2.08299 17.0873 2.06055L17.1018 2.19238C17.0002 2.20641 16.9363 2.22324 16.9159 2.23726C16.9072 2.24568 16.9014 2.25409 16.8985 2.26812C16.8985 2.28214 16.8985 2.34385 16.9072 2.45324C16.9159 2.56264 16.9275 2.70008 16.945 2.86838C16.945 2.88521 16.9624 3.03107 16.9914 3.30035C17.0089 3.4406 17.0234 3.58365 17.0379 3.72109C17.0524 3.86134 17.064 3.94549 17.0699 3.97635C17.1918 3.97354 17.2761 3.96793 17.3225 3.96513C17.4561 3.9511 17.5752 3.93147 17.6739 3.90342C17.7088 3.895 17.7291 3.88659 17.7378 3.87817C17.7436 3.86976 17.7495 3.85012 17.7553 3.81927C17.764 3.74353 17.7727 3.65377 17.7814 3.5556L17.8947 3.54438C17.8947 3.57243 17.8947 3.58926 17.8947 3.59487V3.90061C17.8947 3.99598 17.8947 4.05208 17.8976 4.07172C17.8714 4.08294 17.8453 4.09135 17.8192 4.09696C17.764 4.10818 17.6827 4.1194 17.5665 4.12782C17.552 4.12782 17.4474 4.13623 17.2528 4.15026C17.1047 4.16148 17.0031 4.16989 16.945 4.1755C16.8578 4.18392 16.7242 4.20075 16.5471 4.22599L16.5413 4.22038Z" fill="#223E87"/>
<path d="M18.8125 2.484L19.1029 3.25537C19.0216 3.26098 18.9287 3.26379 18.827 3.26379C18.7196 3.26379 18.6237 3.26379 18.5395 3.25537L18.8125 2.484ZM18.2578 4.0604L18.5685 4.07162V3.9454C18.4611 3.94259 18.3972 3.93137 18.3769 3.92015C18.3623 3.90893 18.3536 3.8921 18.3536 3.86966C18.3536 3.836 18.3769 3.75185 18.4204 3.61161L18.4814 3.43209H19.1726L19.2888 3.75746C19.3091 3.81356 19.3207 3.85564 19.3207 3.88088C19.3207 3.90052 19.3149 3.91454 19.3004 3.92296C19.2859 3.93137 19.2249 3.93698 19.1174 3.94259V4.06882L19.5908 4.05479L19.9655 4.06601V3.93979C19.9394 3.93698 19.919 3.93418 19.9045 3.93137C19.8609 3.93137 19.8348 3.92576 19.8261 3.92015C19.8145 3.91735 19.8058 3.90893 19.797 3.90332C19.7883 3.89491 19.7796 3.88369 19.7709 3.86405L19.7157 3.72661L19.6315 3.52185L19.0245 1.95947H18.8357L18.7196 2.29888L18.3681 3.26379C18.3013 3.44611 18.2578 3.56953 18.2345 3.63124C18.1823 3.76307 18.1532 3.83881 18.1416 3.86125C18.13 3.88088 18.1213 3.89771 18.1126 3.90613C18.1039 3.91454 18.0893 3.92296 18.0777 3.92576C18.0632 3.93137 18.0196 3.93698 17.947 3.94259V4.06882L18.2549 4.0576L18.2578 4.0604Z" fill="#223E87"/>
<path d="M20.7961 2.15027L20.8136 2.02686L21.2434 2.09698L21.4235 2.11661L21.6035 2.13625L21.6529 2.14186L21.6355 2.26528C21.5396 2.25125 21.4757 2.25406 21.4467 2.26808C21.4322 2.2765 21.4206 2.29052 21.4118 2.31577C21.3915 2.37467 21.3654 2.50931 21.3363 2.71969L21.287 3.0647L21.2637 3.23861C21.2376 3.42093 21.2231 3.53313 21.2231 3.5752C21.2173 3.67057 21.226 3.74631 21.2521 3.80802C21.2783 3.86973 21.3247 3.92302 21.3886 3.9679C21.4525 4.01278 21.5396 4.04364 21.65 4.05766C21.7749 4.07449 21.8765 4.06327 21.9579 4.02681C22.0392 3.99034 22.1002 3.93424 22.1437 3.86412C22.1844 3.79399 22.2221 3.65094 22.2541 3.44056L22.2976 3.13763C22.3354 2.87676 22.3557 2.71688 22.3586 2.65798C22.3732 2.53175 22.379 2.45602 22.3732 2.43077C22.3703 2.41394 22.3615 2.39992 22.3499 2.3915C22.3238 2.37187 22.2628 2.35223 22.1699 2.33821L22.1873 2.21479C22.347 2.24564 22.44 2.26247 22.4719 2.26528C22.4806 2.26528 22.4922 2.26528 22.5068 2.26808L22.803 2.29613L22.7856 2.41955C22.7042 2.40833 22.6491 2.40833 22.6258 2.41955C22.6142 2.42516 22.6026 2.43919 22.5939 2.46163C22.5852 2.48407 22.5619 2.58224 22.53 2.75895C22.498 2.93567 22.4748 3.07592 22.4574 3.1797L22.408 3.52752C22.3964 3.61728 22.3761 3.70704 22.3499 3.80241C22.3238 3.89497 22.2889 3.97351 22.2454 4.03803C22.1989 4.09973 22.1408 4.15583 22.0711 4.20071C21.9985 4.24559 21.9172 4.27645 21.8272 4.29328C21.7371 4.31011 21.6326 4.31011 21.5164 4.29328C21.3828 4.27645 21.2579 4.23718 21.1476 4.18108C21.0662 4.139 21.0023 4.09132 20.953 4.03242C20.9065 3.97351 20.8717 3.91461 20.8542 3.84729C20.8339 3.77997 20.8252 3.71826 20.8281 3.65935C20.8281 3.62289 20.8397 3.52752 20.8629 3.37044L20.9065 3.08714L20.9617 2.71127C20.982 2.57383 20.9965 2.4476 21.0082 2.3354C21.0111 2.29052 21.0082 2.25967 21.0082 2.24003C21.0052 2.22881 20.9936 2.21479 20.9791 2.19796L20.8078 2.15308L20.7961 2.15027Z" fill="#223E87"/>
<path d="M22.5473 4.24247C22.6519 4.26211 22.7099 4.27333 22.7274 4.27052C22.739 4.27052 22.7477 4.26491 22.7564 4.2565C22.7651 4.25089 22.7738 4.23406 22.7855 4.20601C22.8 4.16954 22.8319 4.08259 22.8755 3.94514C22.9016 3.8666 22.9307 3.76282 22.9655 3.63379L23.0933 3.16816L23.2008 2.74461C23.2182 2.67449 23.2298 2.6268 23.2298 2.60436C23.2298 2.58192 23.2298 2.56509 23.224 2.55387C23.2182 2.54265 23.2066 2.53143 23.1891 2.52021C23.1717 2.50899 23.1194 2.48936 23.0294 2.4585L23.0614 2.33789C23.1688 2.37436 23.2501 2.3968 23.3024 2.41082L23.4941 2.45289L23.6161 2.47814C23.7235 2.78388 23.8571 3.14011 24.0198 3.54123C24.1359 3.83294 24.2347 4.06295 24.316 4.23125L24.4089 3.89465C24.5513 3.37293 24.6297 3.06719 24.6442 2.97182C24.65 2.93535 24.65 2.91011 24.6384 2.89608C24.6239 2.87364 24.5571 2.84559 24.4438 2.81474L24.4757 2.69412C24.5803 2.72778 24.6761 2.75583 24.7633 2.78108C24.8504 2.80352 24.9608 2.82596 25.0973 2.85401L25.0653 2.97462C24.9578 2.94938 24.894 2.94377 24.8707 2.95218C24.862 2.95499 24.8562 2.9606 24.8504 2.97182C24.8243 3.0167 24.7865 3.12609 24.7342 3.29719C24.6819 3.4683 24.6471 3.59733 24.6239 3.67867C24.4496 4.32382 24.348 4.71371 24.3218 4.85396L24.3015 4.86237C24.2347 4.82871 24.165 4.79786 24.0924 4.767C23.9094 4.34626 23.6538 3.72075 23.3315 2.89047L23.134 3.61135C23.0933 3.76002 23.0526 3.91709 23.0149 4.07978C22.9888 4.19198 22.9742 4.26211 22.9742 4.28735C22.9742 4.30138 22.9771 4.3126 22.9858 4.32101C22.9917 4.32943 23.0062 4.33784 23.0236 4.34626C23.0788 4.3687 23.1165 4.38272 23.1427 4.38833C23.1485 4.38833 23.1572 4.38833 23.1717 4.39394L23.1369 4.52016C22.9742 4.47248 22.8813 4.44724 22.8581 4.44163C22.7738 4.41919 22.6577 4.39675 22.5125 4.36589L22.5473 4.23686V4.24247Z" fill="#223E87"/>
<path d="M26.1486 3.24681L26.1021 3.37303C26.015 3.34498 25.9627 3.33096 25.9453 3.33096C25.9278 3.33096 25.9133 3.33096 25.9046 3.33376C25.8959 3.33657 25.8872 3.34498 25.8814 3.35059C25.8698 3.36462 25.8523 3.39267 25.8349 3.43755C25.8233 3.45998 25.8059 3.50767 25.7797 3.57499C25.6897 3.805 25.6432 3.92842 25.6345 3.94525L25.4196 4.51185L25.3296 4.77271C25.2947 4.87089 25.2744 4.9326 25.2715 4.96626C25.2715 4.98028 25.2715 4.9915 25.2773 5.00272C25.2831 5.01394 25.2918 5.02236 25.3092 5.03358C25.3237 5.0448 25.3731 5.06443 25.4515 5.09248L25.4022 5.21871C25.2686 5.16261 25.1234 5.10651 24.9665 5.05321C24.8329 5.00553 24.708 4.96626 24.6006 4.93821L24.6471 4.81198C24.7371 4.84003 24.7894 4.85406 24.8039 4.85686C24.8242 4.85686 24.8387 4.85686 24.8474 4.85686C24.8562 4.85125 24.862 4.84564 24.8678 4.83723C24.8736 4.82601 24.8939 4.78393 24.9288 4.7082C24.9752 4.59881 25.0188 4.49502 25.0537 4.39965L25.2744 3.81061C25.3441 3.62267 25.3876 3.50206 25.4022 3.44876C25.4428 3.32815 25.4661 3.25242 25.4719 3.21876C25.4719 3.20754 25.4719 3.19632 25.4719 3.1879C25.469 3.17949 25.4602 3.17107 25.4486 3.15985C25.4341 3.15144 25.3847 3.129 25.2976 3.09253L25.3441 2.96631C25.4457 3.01119 25.5677 3.05607 25.7042 3.10656C25.8581 3.15985 26.0063 3.20754 26.1457 3.24961L26.1486 3.24681Z" fill="#223E87"/>
<path d="M26.262 5.5944C26.2852 5.37281 26.3084 5.16244 26.3288 4.96328L26.3781 4.42473C26.4188 4.00398 26.442 3.75153 26.4449 3.66738C26.4449 3.58323 26.4449 3.53274 26.4304 3.51591C26.413 3.49067 26.3665 3.45981 26.2939 3.42335L26.352 3.30273C26.5437 3.3981 26.6598 3.45701 26.7005 3.47664L27.142 3.66458L27.0839 3.78519C27.0142 3.75434 26.9619 3.73751 26.9299 3.7319C26.9096 3.72909 26.8951 3.7319 26.8835 3.7347C26.8719 3.74031 26.8631 3.74873 26.8573 3.76275C26.8428 3.7908 26.8283 3.88897 26.8109 4.05727C26.8022 4.15545 26.7963 4.20594 26.7934 4.21435C26.7934 4.22277 26.7934 4.23118 26.7905 4.2424L26.6889 5.22134L27.322 4.59863C27.3365 4.58461 27.4062 4.51168 27.534 4.38265C27.6241 4.29009 27.6822 4.22838 27.7083 4.19472C27.7141 4.1835 27.7199 4.17508 27.7257 4.16386C27.7344 4.14984 27.7373 4.13581 27.7373 4.1274C27.7373 4.11898 27.7344 4.11057 27.7286 4.10215C27.7257 4.09654 27.7112 4.08813 27.688 4.0741C27.6386 4.04325 27.595 4.02081 27.5573 4.00398L27.6154 3.88336L27.9203 4.03483L28.1875 4.14423L28.1294 4.26484C28.0481 4.23679 27.9958 4.22557 27.9784 4.23118C27.9464 4.2396 27.8506 4.32094 27.6909 4.47522L27.4934 4.66034L27.1158 5.02219C26.7934 5.33073 26.5698 5.54952 26.4478 5.68416L26.262 5.60001V5.5944Z" fill="#223E87"/>
<path d="M27.2987 6.07984L27.3423 6.01252C27.4033 6.01533 27.4555 6.01252 27.4991 6.00411C27.5252 5.97045 27.5688 5.91435 27.6211 5.83862C27.7227 5.69556 27.7924 5.59178 27.836 5.52726L28.2048 4.95505C28.2194 4.93261 28.2687 4.84846 28.3588 4.7026C28.4198 4.60723 28.4517 4.54552 28.4575 4.51747C28.4575 4.50625 28.4575 4.49784 28.4517 4.48942C28.4401 4.46698 28.3907 4.42771 28.3065 4.36881L28.3675 4.27344L28.6318 4.43052C28.684 4.46137 28.7363 4.49223 28.7828 4.52028C28.8873 4.58199 29.0035 4.65211 29.1313 4.72504L29.3665 4.85687C29.3927 4.8737 29.4479 4.90736 29.5292 4.96066C29.5379 4.96627 29.5495 4.97468 29.5611 4.99151V5.01395L29.4188 5.18225C29.4101 5.19347 29.3665 5.25238 29.2881 5.35896L29.1981 5.30567C29.262 5.20469 29.2968 5.14018 29.3056 5.11493C29.3114 5.10091 29.3114 5.08969 29.3085 5.08127C29.3026 5.06725 29.2765 5.042 29.23 5.00554C29.1603 4.94944 29.0906 4.90175 29.018 4.85687C28.9512 4.8148 28.8786 4.77833 28.8031 4.74187C28.7305 4.83163 28.6492 4.95224 28.5533 5.0981L28.3849 5.35896C28.4314 5.39543 28.4836 5.43189 28.5388 5.46555C28.5562 5.47677 28.6201 5.51324 28.7305 5.57495C28.7712 5.59739 28.7973 5.61141 28.8089 5.60861C28.8205 5.60861 28.8322 5.603 28.8438 5.59178C28.8728 5.56653 28.9135 5.51324 28.9628 5.44031L29.0558 5.49641L28.867 5.7713L28.6957 6.0546L28.6027 5.9985C28.6666 5.90033 28.6986 5.83581 28.7015 5.80776C28.7015 5.78532 28.6928 5.76569 28.6724 5.74605C28.626 5.70398 28.5592 5.6591 28.4778 5.60861C28.4052 5.56373 28.3384 5.53007 28.2862 5.50763L27.9435 6.03777C27.9057 6.09667 27.8737 6.14997 27.8534 6.19485C27.9086 6.23973 27.9812 6.28461 28.0654 6.3351C28.1467 6.38559 28.2252 6.42766 28.2978 6.46413C28.3704 6.50059 28.4198 6.51742 28.443 6.51462C28.4517 6.51462 28.4604 6.50901 28.472 6.50059C28.5127 6.46974 28.5766 6.39961 28.6637 6.29583L28.7566 6.35193C28.6318 6.50901 28.533 6.64084 28.4633 6.75023L28.4372 6.75865C28.3849 6.73621 28.3123 6.69694 28.2223 6.64364L28.0422 6.52864C27.8621 6.41644 27.7402 6.34071 27.6704 6.29863C27.653 6.28741 27.5223 6.21448 27.2842 6.07984H27.2987Z" fill="#223E87"/>
<path d="M29.8371 5.28873L29.9155 5.19336C29.93 5.20738 29.9852 5.24946 30.0753 5.328C30.1217 5.36727 30.1856 5.42056 30.2698 5.48508C30.3424 5.54118 30.4063 5.58886 30.4615 5.62533C30.5516 5.68704 30.6242 5.74033 30.6793 5.78521C30.7897 5.86936 30.8623 5.94229 30.903 6.00119C30.9436 6.0601 30.9582 6.13303 30.9494 6.21718C30.9407 6.30133 30.903 6.38267 30.8391 6.46401C30.7607 6.55938 30.6619 6.6239 30.5457 6.66036C30.4296 6.69683 30.2989 6.69683 30.1508 6.65756C30.1391 6.70524 30.1275 6.75573 30.1217 6.80903C30.113 6.86232 30.1101 6.89598 30.1072 6.9044C30.1072 6.91562 30.1043 6.92684 30.1014 6.93525L30.0375 7.33075C30.0201 7.43734 30.0114 7.49344 30.0114 7.50186C29.9997 7.61967 29.9939 7.68979 29.9939 7.71223C29.9939 7.73467 29.9968 7.75431 30.0056 7.76833C30.0114 7.78235 30.0317 7.80199 30.0636 7.82723L29.9765 7.93102C29.8749 7.84126 29.7993 7.77675 29.75 7.74028C29.6948 7.6954 29.6367 7.65613 29.5757 7.61967C29.5873 7.60003 29.596 7.57198 29.6048 7.53271L29.7267 6.94647C29.7616 6.77817 29.7848 6.64353 29.7964 6.53975C29.8023 6.48926 29.8023 6.44438 29.7964 6.41353L29.84 6.38548C29.9213 6.4528 29.991 6.49206 30.052 6.50328C30.113 6.5145 30.1827 6.50328 30.2582 6.46682C30.3366 6.43316 30.4034 6.37987 30.4644 6.30694C30.5254 6.23401 30.5574 6.16388 30.569 6.09095C30.5777 6.01802 30.569 5.95631 30.5399 5.90302C30.5196 5.86936 30.4731 5.82167 30.3976 5.76277C30.3628 5.73753 30.3279 5.71509 30.2902 5.69545C30.264 5.7207 30.2089 5.7824 30.1246 5.88058C29.9358 6.09656 29.811 6.24242 29.75 6.31816C29.6512 6.43597 29.5496 6.55938 29.445 6.69122C29.3143 6.85391 29.2388 6.94647 29.2214 6.96891C29.1865 7.01379 29.1662 7.04465 29.1604 7.06148C29.1604 7.06989 29.1604 7.08111 29.1604 7.08953C29.1604 7.10075 29.1691 7.11197 29.1807 7.12599C29.1924 7.14002 29.2301 7.17367 29.2969 7.22977L29.2098 7.33356C29.0965 7.23538 28.9774 7.13721 28.8555 7.04184C28.748 6.95769 28.6464 6.88476 28.5476 6.81744L28.6347 6.71366C28.7161 6.77256 28.7654 6.80342 28.7858 6.80903C28.7974 6.81183 28.8061 6.81464 28.8148 6.80903C28.8235 6.80342 28.8351 6.79781 28.8496 6.78378C28.8787 6.75854 28.9223 6.71366 28.9745 6.65475L29.265 6.31816L29.628 5.88338L29.8284 5.63094C29.9097 5.53276 29.9533 5.47105 29.962 5.44581C29.9649 5.43459 29.9678 5.42337 29.962 5.41495C29.9533 5.39251 29.9097 5.34763 29.8313 5.2747L29.8371 5.28873Z" fill="#223E87"/>
<path d="M31.9977 7.75446L31.9164 7.67312C32.0035 7.59177 32.0616 7.53287 32.0906 7.4936C32.1052 7.44591 32.1022 7.3842 32.079 7.31408C32.0587 7.24396 32.018 7.17664 31.9599 7.11773C31.8757 7.03358 31.7857 6.99151 31.6898 6.99151C31.594 6.99151 31.5098 7.02517 31.4401 7.08968C31.3907 7.13456 31.3588 7.17944 31.3413 7.22152C31.3239 7.26359 31.3181 7.30286 31.3239 7.34494C31.3297 7.38701 31.35 7.4375 31.382 7.49921C31.4081 7.54409 31.4459 7.6058 31.4982 7.68153C31.5504 7.76007 31.5824 7.81056 31.594 7.833C31.6289 7.89752 31.6492 7.95642 31.6579 8.00972C31.6666 8.0602 31.6666 8.11069 31.655 8.15557C31.6434 8.20045 31.623 8.24814 31.5911 8.30143C31.5592 8.35473 31.5156 8.40522 31.4604 8.45571C31.3646 8.54547 31.2629 8.60437 31.1584 8.63803C31.0799 8.66328 30.9957 8.6745 30.9057 8.67169C30.8157 8.67169 30.7372 8.65486 30.6675 8.62681C30.5572 8.58474 30.4497 8.51181 30.3452 8.40522C30.2697 8.32668 30.2087 8.25094 30.168 8.17521C30.1244 8.09947 30.0896 8.00691 30.0605 7.89471C30.1651 7.83581 30.3045 7.72641 30.4788 7.56653L30.5601 7.64787C30.5049 7.69556 30.441 7.76007 30.3684 7.84422C30.3452 7.91154 30.3452 7.99008 30.3684 8.07984C30.3916 8.1696 30.4352 8.24814 30.502 8.31826C30.5601 8.37717 30.6269 8.41924 30.6966 8.44449C30.7663 8.46693 30.836 8.46973 30.8999 8.4501C30.9638 8.43046 31.0248 8.394 31.0828 8.34351C31.1293 8.30143 31.1642 8.25655 31.1845 8.20887C31.2048 8.16399 31.2077 8.1163 31.1961 8.06581C31.1845 8.01533 31.1526 7.93959 31.0945 7.84142C31.0102 7.70117 30.958 7.6086 30.9347 7.56092C30.8999 7.48799 30.8854 7.42067 30.8912 7.35335C30.897 7.28603 30.9144 7.22152 30.9522 7.157C30.987 7.09249 31.0364 7.03358 31.0974 6.97748C31.1816 6.89894 31.2745 6.84284 31.3733 6.80918C31.472 6.77272 31.5679 6.7615 31.6521 6.77272C31.7392 6.78394 31.8205 6.81479 31.896 6.85967C31.9716 6.90455 32.0442 6.96065 32.1052 7.02236C32.172 7.08968 32.2271 7.15981 32.2736 7.23554C32.3201 7.31128 32.3549 7.3842 32.3723 7.45433L32.352 7.48518C32.2939 7.52165 32.2387 7.55811 32.1894 7.59738C32.14 7.63665 32.0732 7.68995 31.9948 7.75727L31.9977 7.75446Z" fill="#223E87"/>
<path d="M33.2495 8.39661L33.1391 8.47795C33.081 8.41063 33.0462 8.37137 33.0317 8.36015C33.0171 8.34893 33.0055 8.34332 32.9968 8.34332C32.9881 8.34332 32.9765 8.34332 32.9678 8.34612C32.9503 8.35173 32.9213 8.36856 32.8806 8.39661C32.8574 8.41064 32.8167 8.43868 32.7587 8.48356C32.5554 8.63223 32.4479 8.71077 32.4305 8.72199L31.9367 9.09224L31.7189 9.26615C31.6347 9.33067 31.5824 9.37274 31.5621 9.40079C31.5534 9.41201 31.5476 9.42323 31.5476 9.43445C31.5476 9.44567 31.5476 9.4597 31.5563 9.47653C31.565 9.49336 31.5911 9.53543 31.6434 9.59995L31.533 9.68129C31.4488 9.56348 31.3588 9.44287 31.2571 9.31664C31.1671 9.20725 31.0858 9.10907 31.0132 9.03053L31.1235 8.94919C31.1845 9.01932 31.2223 9.05859 31.231 9.067C31.2455 9.07822 31.2571 9.08383 31.2688 9.08663C31.2775 9.08663 31.2891 9.08663 31.2978 9.08383C31.3094 9.07822 31.3501 9.05298 31.4198 9.00529C31.5214 8.93517 31.6144 8.87065 31.6986 8.80894L32.2097 8.42746C32.3724 8.30685 32.474 8.22551 32.5176 8.18624C32.6192 8.10489 32.6802 8.0516 32.7035 8.02916C32.7122 8.01794 32.718 8.00952 32.7209 8.00111C32.7209 7.99269 32.7209 7.98147 32.7151 7.96745C32.7093 7.95342 32.6802 7.90854 32.6251 7.83281L32.7354 7.75146C32.7964 7.84122 32.8719 7.9422 32.9619 8.0544C33.0607 8.18063 33.1594 8.29563 33.2553 8.40222L33.2495 8.39661Z" fill="#223E87"/>
<path d="M31.7656 10.0151L31.8731 9.95343C31.9311 10.0404 31.9718 10.0881 31.9921 10.0993C32.0125 10.1105 32.0386 10.1105 32.0676 10.1021C32.1112 10.0881 32.2274 10.0236 32.4191 9.91416L33.2177 9.45134C33.4356 9.32511 33.5546 9.25218 33.5779 9.23255L33.4791 9.07547C33.4297 8.99693 33.3833 8.9268 33.3397 8.87071C33.3223 8.84827 33.3107 8.83705 33.3049 8.83424C33.2961 8.83424 33.2787 8.83424 33.2497 8.84827C33.1829 8.87351 33.1103 8.90717 33.0319 8.95205L32.9738 8.85668C33.1538 8.74729 33.2526 8.68558 33.2758 8.67155C33.3136 8.64911 33.3542 8.61826 33.3949 8.5874H33.4123C33.4297 8.62667 33.4501 8.66314 33.4733 8.70521C33.5111 8.76973 33.5866 8.89315 33.6998 9.07547L33.9787 9.52427C34.0948 9.70939 34.1732 9.83562 34.2139 9.89733C34.2371 9.93099 34.2604 9.96465 34.2865 9.9955L34.2807 10.0123C34.2226 10.0376 34.1732 10.06 34.1297 10.0825C34.121 10.0853 34.0251 10.1386 33.8363 10.2451L33.7783 10.1526C33.8451 10.1133 33.909 10.0684 33.967 10.0236C33.9961 10.0011 34.0106 9.98428 34.0164 9.97587C34.0164 9.97026 34.0164 9.95623 34.0048 9.93379C33.9728 9.86928 33.9322 9.79354 33.8799 9.70939L33.7812 9.54951C33.7492 9.56634 33.6272 9.63646 33.4152 9.75708L32.6165 10.2199C32.4249 10.3321 32.3116 10.4022 32.2768 10.4303C32.2564 10.4499 32.2477 10.4695 32.2448 10.492C32.2448 10.5172 32.2709 10.5733 32.3232 10.6659L32.2158 10.7276C32.1344 10.5789 32.0618 10.4583 32.0008 10.3601C31.934 10.2536 31.8556 10.1358 31.7627 10.0011L31.7656 10.0151Z" fill="#223E87"/>
<path d="M20.4533 9.14019C20.4533 9.14019 20.3081 9.03921 20.25 9.09531C20.25 9.09531 20.1687 9.16824 20.2268 9.26922L20.4185 9.51044C20.4185 9.51044 20.4417 9.5441 20.5637 9.54971H21.676V10.1668H20.2675C20.2675 10.1668 20.1339 10.1612 20.128 10.251C20.128 10.251 20.0816 10.3351 20.2791 10.3968C20.2791 10.3968 20.4011 10.4361 20.3952 10.5427L20.4011 11.3421C20.4011 11.3421 20.4824 11.6002 20.7554 11.6002L21.9635 11.6058C21.9635 11.6058 22.678 11.5833 22.829 11.3589V12.5847C22.829 12.5847 22.8639 12.6913 23.0207 12.6688C23.0207 12.6688 23.4447 12.7081 23.5319 12.3884V10.5343L24.0314 10.5399C24.0314 10.5399 24.1708 10.5343 24.1476 10.293C24.1476 10.293 24.1476 10.1303 24.0198 10.1191H23.5202L23.526 8.87371C23.526 8.87371 23.5319 8.78956 23.3924 8.77834L22.5676 8.71103C22.5676 8.71103 22.4457 8.70542 22.4398 8.78395C22.4398 8.78395 22.4282 8.85688 22.4979 8.87932C22.4979 8.87932 22.8406 9.01396 22.8348 9.09811L22.8406 11.0139C22.8406 11.0139 22.5851 11.2215 22.3934 11.2047L21.2172 11.2271C21.2172 11.2271 21.1242 11.2215 21.1126 11.1149L21.1184 10.5371H22.222C22.222 10.5371 22.3672 10.5146 22.3905 10.3351V9.23836C22.3905 9.23836 22.4021 9.15421 22.222 9.1486C22.222 9.1486 20.4708 9.16543 20.4591 9.13738L20.4533 9.14019Z" fill="white"/>
<path d="M16.1493 9.50483C16.1609 9.3197 15.9751 9.30848 15.9751 9.30848H15.1851L15.2083 8.94383C15.2141 8.82041 15.0399 8.8148 15.0399 8.8148L14.4648 8.76992C14.2499 8.73065 14.2732 8.85407 14.2732 8.85407C14.2674 8.94944 14.43 9.04481 14.43 9.04481C14.4823 9.06725 14.4765 9.31128 14.4765 9.31128H13.7272C13.7097 9.31128 13.5471 9.22713 13.5471 9.22713C13.4425 9.19908 13.4251 9.26079 13.4251 9.26079C13.3264 9.3786 13.5878 9.60861 13.5878 9.60861C13.6342 9.68154 13.7214 9.68715 13.7214 9.68715H14.006C13.7446 9.95082 13.7911 10.2425 13.7911 10.2425C13.8433 11.0083 14.8192 11.0784 14.8192 11.0784C15.7805 11.0167 15.856 10.2594 15.856 10.2594C15.9025 9.97326 15.6643 9.67312 15.6643 9.67312H16.007C16.158 9.67873 16.1464 9.50483 16.1464 9.50483H16.1493ZM14.8366 10.6969C14.6565 10.6969 14.5084 10.4725 14.5084 10.1949C14.5084 9.91716 14.6536 9.68995 14.8366 9.68995C15.0196 9.68995 15.1648 9.91716 15.1648 10.1949C15.1648 10.4725 15.0196 10.6969 14.8366 10.6969Z" fill="white"/>
<path d="M16.1317 8.74746C16.1317 8.74746 15.9981 8.7138 15.9633 8.80917C15.9633 8.80917 15.9168 8.91576 16.0678 8.96064C16.0678 8.96064 16.3466 9.04479 16.3583 9.12894V11.5272C16.3583 11.5272 16.4628 11.6899 16.8578 11.5552C16.8578 11.5552 17.0553 11.4823 17.0553 11.2579V10.2089H17.5664C17.5664 10.2089 17.6884 10.2089 17.6768 9.92275C17.6768 9.92275 17.6594 9.7825 17.52 9.7825H17.0495V8.92979C17.0495 8.92979 17.0553 8.81198 16.8752 8.79515L16.1346 8.74466L16.1317 8.74746Z" fill="white"/>
<path d="M14.2527 11.2748C14.2527 11.2748 14.1249 11.2411 14.1017 11.3533C14.1017 11.3533 14.0552 11.4318 14.2063 11.4655C14.2063 11.4655 14.4386 11.516 14.4444 11.6114V12.2958C14.4444 12.2958 14.4967 12.5314 14.7755 12.5594L16.974 12.5538C16.974 12.5538 17.1018 12.5594 17.1076 12.3463C17.1076 12.3463 17.0902 12.178 16.9276 12.1723H15.3273C15.3273 12.1723 15.1763 12.1836 15.1879 12.0265L15.1821 11.3954C15.1821 11.3954 15.1647 11.3056 15.0253 11.2944L14.2527 11.2776V11.2748Z" fill="white"/>
<path d="M17.2703 16.6323V14.3603C17.2703 14.3603 17.2238 13.9424 17.7059 13.9199H19.977C19.977 13.9199 20.4243 13.9199 20.4214 14.3603C20.4214 14.6071 20.4214 16.6323 20.4214 16.6323H17.2703Z" fill="white"/>
<path d="M34.5682 9.99854C34.5682 9.99854 32.4713 12.8063 27.1013 14.8203C27.1013 14.8203 24.5049 15.9844 20.4012 16.3153L18.8706 16.3041H18.8503L17.3226 16.3153C13.216 15.9844 10.6225 14.8203 10.6225 14.8203C5.25249 12.8063 3.15561 9.99854 3.15561 9.99854C2.90294 10.5399 2.71997 11.2552 2.71997 11.2552C5.36286 14.1751 5.69975 13.9984 5.69975 13.9984C9.71055 17.6982 14.9353 18.9661 14.9353 18.9661C11.456 21.9337 10.0997 24.3095 10.0997 24.3095C10.7822 24.6237 11.5925 24.9491 11.5925 24.9491C14.5462 20.5284 18.8271 19.5355 18.8271 19.5355C18.8271 19.5355 18.8561 19.5355 18.8619 19.5355C18.8677 19.5355 18.8474 19.5355 18.8474 19.5355C18.8474 19.5355 23.1864 20.5284 26.14 24.9491C26.14 24.9491 26.9445 24.6237 27.6241 24.3095C27.6241 24.3095 26.1952 21.9309 22.713 18.9661C22.713 18.9661 28.2601 17.3588 32.268 13.659C32.268 13.659 32.358 14.1723 35.0009 11.2552C35.0009 11.2552 34.818 10.5399 34.5653 9.99854H34.5682Z" fill="white"/>
<path d="M33.8479 11.5354L34.2022 11.5747C34.2661 11.5803 34.4578 11.5943 34.7773 11.6196C34.8876 11.628 34.9573 11.6308 34.9893 11.6336L35.0706 11.8299L35.0067 11.8552C34.8092 11.8159 34.5827 11.7823 34.3242 11.7486C34.0657 11.7149 33.9002 11.6981 33.8276 11.6925C33.7782 11.6925 33.7375 11.6925 33.7056 11.6981C33.6824 11.7009 33.6446 11.7121 33.5952 11.7318L33.3513 11.8243C33.2293 11.872 33.1422 11.9085 33.087 11.9337C33.0347 11.959 33.0028 11.9786 32.994 11.9898C32.9853 12.001 32.9824 12.0179 32.9824 12.0375C32.9824 12.0571 32.9999 12.1104 33.0376 12.2002L32.9098 12.2507C32.8546 12.0964 32.8024 11.959 32.753 11.8355C32.7036 11.7177 32.6513 11.5971 32.5933 11.4765L32.721 11.426C32.7617 11.5158 32.7878 11.5663 32.7995 11.5803C32.8111 11.5943 32.8227 11.6027 32.8343 11.6027C32.8459 11.6027 32.8779 11.5971 32.9273 11.5831C33.0376 11.5466 33.1335 11.513 33.209 11.4821L33.482 11.3783C33.5052 11.3699 33.543 11.3363 33.601 11.2802C33.7346 11.1399 33.8624 10.9969 33.9873 10.8482C34.089 10.7276 34.1674 10.621 34.2197 10.5312C34.2545 10.4723 34.2748 10.4303 34.2777 10.4078C34.2777 10.3966 34.2661 10.3573 34.2429 10.2984L34.3532 10.2563L34.5217 10.4892C34.5507 10.5284 34.5827 10.5677 34.6175 10.607C34.6059 10.6687 34.5914 10.7164 34.574 10.7472C34.5565 10.7809 34.5217 10.8286 34.4694 10.8959C34.391 10.9941 34.2952 11.1006 34.1819 11.21C34.0047 11.3868 33.8973 11.4961 33.8566 11.5326L33.8479 11.5354Z" fill="#223E87"/>
<path d="M5.67347 10.318L5.78674 10.4358C5.80126 10.5621 5.80126 10.6687 5.78674 10.7556C5.77222 10.8426 5.73737 10.9464 5.67928 11.0614C5.59796 11.2269 5.49631 11.3587 5.37143 11.4569C5.27268 11.5326 5.16523 11.5887 5.04615 11.6195C4.92998 11.6504 4.81381 11.6644 4.69764 11.656C4.52338 11.6476 4.34913 11.6027 4.17777 11.5242C3.88154 11.3895 3.68405 11.196 3.57949 10.9435C3.47494 10.6911 3.49818 10.4106 3.64629 10.1049C3.69857 9.99827 3.75375 9.90851 3.81184 9.83278C3.87283 9.75704 3.95124 9.6757 4.05289 9.58594H4.07322C4.11098 9.6196 4.16035 9.65326 4.22424 9.69253C4.32299 9.75143 4.41592 9.80473 4.50305 9.8468L4.45949 9.93936C4.35784 9.89449 4.27362 9.85802 4.20972 9.83558C4.11969 9.85802 4.04127 9.89449 3.97738 9.94498C3.91349 9.99546 3.8554 10.0712 3.80603 10.175C3.716 10.3601 3.71309 10.5368 3.80022 10.7107C3.88444 10.8846 4.05289 11.0277 4.30266 11.1427C4.45368 11.2128 4.59309 11.2521 4.72378 11.2689C4.85447 11.2829 4.97064 11.2773 5.07519 11.2493C5.17975 11.2212 5.26397 11.1848 5.32787 11.1371C5.41499 11.0726 5.4876 10.98 5.54569 10.8594C5.58344 10.7809 5.60958 10.6995 5.6241 10.621C5.63862 10.5396 5.63862 10.4471 5.62701 10.3405L5.67347 10.3265V10.318Z" fill="#223E87"/>
<path d="M9.49854 22.9487C9.49854 22.9487 10.8374 23.7986 10.7387 24.8757C10.7387 24.8757 9.67279 24.2418 9.49854 22.9487Z" fill="#223E87"/>
<path d="M10.7415 23.6475C10.7415 23.6475 12.1675 24.3683 12.1849 25.4511C12.1849 25.4511 11.0551 24.9181 10.7415 23.6475Z" fill="#223E87"/>
<path d="M12.1414 24.2505C12.1414 24.2505 13.6312 24.8479 13.759 25.9223C13.759 25.9223 12.5799 25.4875 12.1414 24.2505Z" fill="#223E87"/>
<path d="M28.1904 22.9966C28.1904 22.9966 26.8515 23.8465 26.9503 24.9236C26.9503 24.9236 28.0161 24.2897 28.1904 22.9966Z" fill="#223E87"/>
<path d="M26.9503 23.6953C26.9503 23.6953 25.5243 24.4162 25.5068 25.4961C25.5068 25.4961 26.6366 24.9632 26.9503 23.6953Z" fill="#223E87"/>
<path d="M25.5503 24.2954C25.5503 24.2954 24.0604 24.8929 23.9355 25.97C23.9355 25.97 25.1147 25.5352 25.5503 24.2954Z" fill="#223E87"/>
</svg>
