<svg width="20" height="20" viewBox="0 0 20 20" fill="none" xmlns="http://www.w3.org/2000/svg">
<mask id="mask0_2954_10974" style="mask-type:alpha" maskUnits="userSpaceOnUse" x="0" y="0" width="20" height="20">
<path d="M18.042 9.99967C18.042 10.4139 17.7062 10.7497 17.292 10.7497H10.7503V17.2913C10.7503 17.7055 10.4145 18.0413 10.0003 18.0413C9.58611 18.0413 9.25033 17.7055 9.25033 17.2913L9.25033 10.7497L2.70866 10.7497C2.29444 10.7497 1.95866 10.4139 1.95866 9.99967C1.95866 9.58546 2.29444 9.24967 2.70866 9.24967H9.25033V2.70801C9.25033 2.29379 9.58611 1.95801 10.0003 1.95801C10.4145 1.95801 10.7503 2.29379 10.7503 2.70801V9.24967H17.292C17.7062 9.24967 18.042 9.58546 18.042 9.99967Z" fill="#171719"/>
</mask>
<g mask="url(#mask0_2954_10974)">
<rect x="20" width="20" height="20" transform="rotate(90 20 0)" fill="#005EEB"/>
</g>
</svg>
