<svg width="18" height="18" viewBox="0 0 18 18" fill="none" xmlns="http://www.w3.org/2000/svg">
<g id="Shape">
<g id="Vector">
<path d="M9.67489 5.32437H8.32489V8.32437H5.3249V9.67437H8.32489V12.6744H9.67489V9.67437H12.6749V8.32437H9.67489V5.32437Z" fill="#848588"/>
<path fill-rule="evenodd" clip-rule="evenodd" d="M7.20822 1.76172C6.39292 1.76171 5.7399 1.76171 5.21208 1.80483C4.67008 1.84912 4.20091 1.94221 3.76903 2.16227C3.07754 2.5146 2.51533 3.07681 2.163 3.7683C1.94295 4.20019 1.84985 4.66936 1.80557 5.21136C1.76244 5.73919 1.76245 6.3922 1.76245 7.2075L1.76245 10.7909C1.76245 11.6062 1.76244 12.2593 1.80557 12.7871C1.84985 13.3291 1.94295 13.7983 2.163 14.2301C2.51533 14.9216 3.07754 15.4838 3.76903 15.8362C4.20091 16.0562 4.67008 16.1493 5.21208 16.1936C5.73989 16.2367 6.39288 16.2367 7.20815 16.2367H10.7916C11.6069 16.2367 12.26 16.2367 12.7878 16.1936C13.3298 16.1493 13.7989 16.0562 14.2308 15.8362C14.9223 15.4838 15.4845 14.9216 15.8368 14.2301C16.0569 13.7983 16.15 13.3291 16.1943 12.7871C16.2374 12.2593 16.2374 11.6063 16.2374 10.791V7.20751C16.2374 6.39223 16.2374 5.73917 16.1943 5.21136C16.15 4.66936 16.0569 4.20019 15.8368 3.7683C15.4845 3.07681 14.9223 2.5146 14.2308 2.16227C13.7989 1.94221 13.3298 1.84912 12.7878 1.80483C12.2599 1.76171 11.6069 1.76171 10.7916 1.76172H7.20822ZM4.38191 3.36513C4.59176 3.2582 4.8635 3.18781 5.32201 3.15035C5.7884 3.11224 6.38622 3.11172 7.23743 3.11172H10.7624C11.6136 3.11172 12.2114 3.11224 12.6778 3.15035C13.1363 3.18781 13.4081 3.2582 13.6179 3.36513C14.0554 3.58803 14.4111 3.94371 14.634 4.38119C14.7409 4.59104 14.8113 4.86278 14.8488 5.32129C14.8869 5.78769 14.8874 6.3855 14.8874 7.23672V10.7617C14.8874 11.6129 14.8869 12.2108 14.8488 12.6771C14.8113 13.1357 14.7409 13.4074 14.634 13.6172C14.4111 14.0547 14.0554 14.4104 13.6179 14.6333C13.4081 14.7402 13.1363 14.8106 12.6778 14.8481C12.2114 14.8862 11.6136 14.8867 10.7624 14.8867H7.23743C6.38622 14.8867 5.7884 14.8862 5.32201 14.8481C4.8635 14.8106 4.59176 14.7402 4.38191 14.6333C3.94444 14.4104 3.58876 14.0547 3.36586 13.6172C3.25893 13.4074 3.18854 13.1357 3.15108 12.6771C3.11297 12.2108 3.11245 11.6129 3.11245 10.7617V7.23672C3.11245 6.3855 3.11297 5.78769 3.15108 5.32129C3.18854 4.86278 3.25893 4.59104 3.36586 4.38119C3.58876 3.94371 3.94444 3.58803 4.38191 3.36513Z" fill="#848588"/>
</g>
</g>
</svg>
