<svg width="25" height="24" viewBox="0 0 25 24" fill="none" xmlns="http://www.w3.org/2000/svg">
<mask id="mask0_2872_14045" style="mask-type:alpha" maskUnits="userSpaceOnUse" x="0" y="0" width="25" height="24">
<path d="M18.9797 4.50022C18.8743 4.29324 18.706 4.12496 18.499 4.0195L18.499 4.0195C18.404 3.97108 18.2769 3.93708 18.0522 3.91872C17.8221 3.89991 17.5258 3.89961 17.0996 3.89961H7.89961C7.47339 3.89961 7.17715 3.89991 6.94699 3.91872C6.7223 3.93708 6.59527 3.97108 6.50023 4.0195L6.50022 4.0195C6.29324 4.12496 6.12497 4.29324 6.01951 4.50022C5.97108 4.59526 5.93708 4.72231 5.91872 4.94699C5.89991 5.17715 5.89961 5.47339 5.89961 5.89961V19.9003V20.7888L6.6591 20.3277L12.292 16.9077C12.4196 16.8303 12.5796 16.8303 12.7072 16.9077L18.3401 20.3277L19.0996 20.7888V19.9003V5.89961C19.0996 5.47339 19.0993 5.17715 19.0805 4.94699C19.0622 4.72232 19.0282 4.59527 18.9797 4.50022ZM18.9797 4.50022L18.5342 4.72722M18.9797 4.50022C18.9797 4.50022 18.9797 4.50022 18.9797 4.50021L18.5342 4.72722M18.5342 4.72722C18.5405 4.73963 18.5663 4.79323 18.5822 4.9877C18.5989 5.19268 18.5996 5.46472 18.5996 5.89961V19.3153L18.8591 19.4729L18.5996 19.9003H18.0996V19.5967L12.9667 16.4803C12.6797 16.306 12.3195 16.306 12.0325 16.4803L6.89961 19.5967V19.9003H6.39961L6.14012 19.4729L6.39961 19.3153V5.89961C6.39961 5.46472 6.40031 5.19268 6.41706 4.9877C6.43295 4.79323 6.45868 4.73963 6.46501 4.72722C6.52253 4.61432 6.61432 4.52253 6.72722 4.46501C6.73963 4.45868 6.79323 4.43295 6.9877 4.41706C7.19268 4.40031 7.46472 4.39961 7.89961 4.39961H17.0996C17.5345 4.39961 17.8065 4.40031 18.0115 4.41706C18.206 4.43295 18.2596 4.45868 18.272 4.46501C18.3849 4.52253 18.4767 4.61432 18.5342 4.72722ZM17.1329 3.09961H17.133C17.5313 3.09959 17.855 3.09993 18.1174 3.12138C18.3921 3.14382 18.6359 3.19138 18.8622 3.3067C19.2197 3.48886 19.5104 3.77952 19.6925 4.13703C19.8078 4.36335 19.8554 4.60716 19.8778 4.88184C19.8993 5.14427 19.8996 5.46797 19.8996 5.86625L19.8996 21.4996C19.8996 21.6441 19.8217 21.7773 19.6958 21.8482C19.5699 21.9191 19.4155 21.9165 19.292 21.8415L12.7591 17.8751L12.4996 17.7176L12.2401 17.8751L5.7072 21.8415C5.5837 21.9165 5.42936 21.9191 5.30344 21.8482C5.17753 21.7773 5.09961 21.6441 5.09961 21.4996V5.89961L5.09961 5.86625C5.09959 5.46797 5.09993 5.14427 5.12138 4.88184C5.14382 4.60716 5.19138 4.36335 5.3067 4.13703C5.48886 3.77952 5.77952 3.48886 6.13703 3.3067C6.36335 3.19138 6.60716 3.14382 6.88184 3.12138C7.14427 3.09993 7.46797 3.09959 7.86625 3.09961L7.89961 3.09961L17.1329 3.09961Z" fill="#171719" stroke="#171719"/>
</mask>
<g mask="url(#mask0_2872_14045)">
<rect x="0.5" width="24" height="24" fill="#C7C8C9"/>
</g>
</svg>
