<svg width="10" height="4" viewBox="0 0 10 4" fill="none" xmlns="http://www.w3.org/2000/svg">
<path id="Vector" d="M0.5 3.83268C0.358333 3.83268 0.239611 3.78474 0.143833 3.68885C0.0479445 3.59296 0 3.47418 0 3.33252C0 3.19074 0.0479445 3.07202 0.143833 2.97635C0.239611 2.88057 0.358333 2.83268 0.5 2.83268H9.5C9.64167 2.83268 9.76039 2.88063 9.85617 2.97652C9.95206 3.0724 10 3.19118 10 3.33285C10 3.47463 9.95206 3.59335 9.85617 3.68902C9.76039 3.78479 9.64167 3.83268 9.5 3.83268H0.5ZM0.5 1.16602C0.358333 1.16602 0.239611 1.11807 0.143833 1.02218C0.0479445 0.926293 0 0.807515 0 0.665849C0 0.524071 0.0479445 0.405349 0.143833 0.309682C0.239611 0.213904 0.358333 0.166016 0.5 0.166016H9.5C9.64167 0.166016 9.76039 0.21396 9.85617 0.309849C9.95206 0.405738 10 0.524516 10 0.666182C10 0.80796 9.95206 0.926682 9.85617 1.02235C9.76039 1.11813 9.64167 1.16602 9.5 1.16602H0.5Z" fill="#C7C8C9"/>
</svg>
