<svg width="24" height="24" viewBox="0 0 24 24" fill="none" xmlns="http://www.w3.org/2000/svg">
<g id="add_comment_24">
<path id="Vector" d="M11.3684 11.6849V13.508C11.3684 13.6805 11.4289 13.8249 11.5499 13.9411C11.6707 14.0575 11.8208 14.1157 12 14.1157C12.1792 14.1157 12.3293 14.0575 12.4501 13.9411C12.5711 13.8249 12.6316 13.6805 12.6316 13.508V11.6849H14.5263C14.7055 11.6849 14.8556 11.6267 14.9764 11.5103C15.0974 11.394 15.1579 11.2496 15.1579 11.0772C15.1579 10.9047 15.0974 10.7603 14.9764 10.6441C14.8556 10.5277 14.7055 10.4694 14.5263 10.4694H12.6316V8.6463C12.6316 8.47384 12.5711 8.32948 12.4501 8.2132C12.3293 8.09679 12.1792 8.03858 12 8.03858C11.8208 8.03858 11.6707 8.09679 11.5499 8.2132C11.4289 8.32948 11.3684 8.47384 11.3684 8.6463V10.4694H9.47368C9.29446 10.4694 9.14442 10.5277 9.02358 10.6441C8.9026 10.7603 8.84211 10.9047 8.84211 11.0772C8.84211 11.2496 8.9026 11.394 9.02358 11.5103C9.14442 11.6267 9.29446 11.6849 9.47368 11.6849H11.3684ZM6.97979 17.1543L5.29389 18.7763C5.05432 19.007 4.77874 19.0592 4.46716 18.9331C4.15572 18.8068 4 18.5796 4 18.2513V6.4648C4 6.05547 4.14737 5.709 4.44211 5.4254C4.73684 5.1418 5.09691 5 5.52232 5H18.4777C18.9031 5 19.2632 5.1418 19.5579 5.4254C19.8526 5.709 20 6.05547 20 6.4648V15.6895C20 16.0989 19.8526 16.4453 19.5579 16.7289C19.2632 17.0125 18.9031 17.1543 18.4777 17.1543H6.97979ZM6.44211 15.9389H18.4777C18.5425 15.9389 18.6019 15.9129 18.6558 15.8609C18.7098 15.809 18.7368 15.7519 18.7368 15.6895V6.4648C18.7368 6.40241 18.7098 6.34528 18.6558 6.29342C18.6019 6.24143 18.5425 6.21543 18.4777 6.21543H5.52232C5.45747 6.21543 5.39811 6.24143 5.34421 6.29342C5.29018 6.34528 5.26316 6.40241 5.26316 6.4648V17.0609L6.44211 15.9389Z" fill="#848588"/>
</g>
</svg>
