<svg width="20" height="19" viewBox="0 0 20 19" fill="none" xmlns="http://www.w3.org/2000/svg">
<path id="Vector" d="M4.25 11.875H11.75V10.375H4.25V11.875ZM4.25 8.875H15.75V7.375H4.25V8.875ZM4.25 5.875H15.75V4.375H4.25V5.875ZM2.30775 15.75C1.81058 15.75 1.385 15.573 1.031 15.219C0.677 14.865 0.5 14.4394 0.5 13.9423V2.30775C0.5 1.81058 0.677 1.385 1.031 1.031C1.385 0.677 1.81058 0.5 2.30775 0.5H17.6923C18.1894 0.5 18.615 0.677 18.969 1.031C19.323 1.385 19.5 1.81058 19.5 2.30775V13.9423C19.5 14.4394 19.323 14.865 18.969 15.219C18.615 15.573 18.1894 15.75 17.6923 15.75H12.4827L10.748 18.3557C10.6573 18.4929 10.5477 18.5958 10.4192 18.6645C10.2909 18.733 10.1512 18.7673 10 18.7673C9.84883 18.7673 9.70908 18.733 9.58075 18.6645C9.45225 18.5958 9.34267 18.4929 9.252 18.3557L7.51725 15.75H2.30775Z" fill="#E0E0E2"/>
</svg>
