<svg width="16" height="16" viewBox="0 0 16 16" fill="none" xmlns="http://www.w3.org/2000/svg">
<g id="check_circle_24" clip-path="url(#clip0_3582_24517)">
<path id="Vector" d="M6.80484 9.80737L4.84863 7.85095C4.732 7.73446 4.5854 7.67481 4.40884 7.672C4.23242 7.66933 4.08316 7.72898 3.96105 7.85095C3.83909 7.97305 3.77811 8.12098 3.77811 8.29474C3.77811 8.46849 3.83909 8.61642 3.96105 8.73853L6.272 11.0495C6.42428 11.2016 6.6019 11.2777 6.80484 11.2777C7.00779 11.2777 7.1854 11.2016 7.33768 11.0495L12.0227 6.36442C12.1392 6.24779 12.1989 6.10119 12.2017 5.92463C12.2044 5.74821 12.1447 5.59895 12.0227 5.47684C11.9006 5.35488 11.7527 5.2939 11.5789 5.2939C11.4052 5.2939 11.2573 5.35488 11.1352 5.47684L6.80484 9.80737ZM8.00147 16C6.89495 16 5.85488 15.79 4.88126 15.3701C3.90765 14.9502 3.06077 14.3803 2.34063 13.6604C1.62049 12.9406 1.05032 12.094 0.630105 11.1208C0.210035 10.1476 0 9.10786 0 8.00147C0 6.89495 0.209965 5.85488 0.629895 4.88126C1.04982 3.90765 1.61972 3.06077 2.33958 2.34063C3.05944 1.62049 3.90597 1.05032 4.87916 0.630105C5.85235 0.210035 6.89214 0 7.99853 0C9.10505 0 10.1451 0.209965 11.1187 0.629894C12.0924 1.04982 12.9392 1.61972 13.6594 2.33958C14.3795 3.05944 14.9497 3.90597 15.3699 4.87916C15.79 5.85235 16 6.89214 16 7.99853C16 9.10505 15.79 10.1451 15.3701 11.1187C14.9502 12.0924 14.3803 12.9392 13.6604 13.6594C12.9406 14.3795 12.094 14.9497 11.1208 15.3699C10.1476 15.79 9.10786 16 8.00147 16Z" fill="url(#paint0_linear_3582_24517)"/>
</g>
<defs>
<linearGradient id="paint0_linear_3582_24517" x1="8" y1="0" x2="8" y2="16" gradientUnits="userSpaceOnUse">
<stop stop-color="#2257E2"/>
<stop offset="1" stop-color="#2887DF"/>
</linearGradient>
<clipPath id="clip0_3582_24517">
<rect width="16" height="16" fill="white"/>
</clipPath>
</defs>
</svg>
