<svg width="40" height="40" viewBox="0 0 40 40" fill="none" xmlns="http://www.w3.org/2000/svg">
<g id="check_circle_24" clip-path="url(#clip0_3997_30877)">
<path id="Vector" d="M17.0121 24.5184L12.1216 19.6274C11.83 19.3361 11.4635 19.187 11.0221 19.18C10.5811 19.1733 10.2079 19.3225 9.90263 19.6274C9.59772 19.9326 9.44526 20.3025 9.44526 20.7368C9.44526 21.1712 9.59772 21.5411 9.90263 21.8463L15.68 27.6237C16.0607 28.004 16.5047 28.1942 17.0121 28.1942C17.5195 28.1942 17.9635 28.004 18.3442 27.6237L30.0568 15.9111C30.3481 15.6195 30.4972 15.253 30.5042 14.8116C30.5109 14.3705 30.3618 13.9974 30.0568 13.6921C29.7516 13.3872 29.3818 13.2347 28.9474 13.2347C28.513 13.2347 28.1432 13.3872 27.8379 13.6921L17.0121 24.5184ZM20.0037 40C17.2374 40 14.6372 39.4751 12.2032 38.4253C9.76912 37.3754 7.65193 35.9507 5.85158 34.1511C4.05123 32.3514 2.62579 30.2351 1.57526 27.8021C0.525087 25.3691 0 22.7696 0 20.0037C0 17.2374 0.524912 14.6372 1.57474 12.2032C2.62456 9.76912 4.0493 7.65193 5.84895 5.85158C7.6486 4.05123 9.76491 2.62579 12.1979 1.57526C14.6309 0.525087 17.2304 0 19.9963 0C22.7626 0 25.3628 0.524911 27.7968 1.57474C30.2309 2.62456 32.3481 4.0493 34.1484 5.84895C35.9488 7.6486 37.3742 9.76491 38.4247 12.1979C39.4749 14.6309 40 17.2304 40 19.9963C40 22.7626 39.4751 25.3628 38.4253 27.7968C37.3754 30.2309 35.9507 32.3481 34.1511 34.1484C32.3514 35.9488 30.2351 37.3742 27.8021 38.4247C25.3691 39.4749 22.7696 40 20.0037 40Z" fill="url(#paint0_linear_3997_30877)"/>
</g>
<defs>
<linearGradient id="paint0_linear_3997_30877" x1="20" y1="0" x2="20" y2="40" gradientUnits="userSpaceOnUse">
<stop stop-color="#2257E2"/>
<stop offset="1" stop-color="#2887DF"/>
</linearGradient>
<clipPath id="clip0_3997_30877">
<rect width="40" height="40" fill="white"/>
</clipPath>
</defs>
</svg>
