<svg width="12" height="12" viewBox="0 0 12 12" fill="none" xmlns="http://www.w3.org/2000/svg">
<g id="filter_none_24">
<path id="Vector" d="M4.02888 8.75C3.77629 8.75 3.5625 8.6625 3.3875 8.4875C3.2125 8.3125 3.125 8.09871 3.125 7.84613V2.15387C3.125 1.90129 3.2125 1.6875 3.3875 1.5125C3.5625 1.3375 3.77629 1.25 4.02888 1.25H9.72113C9.97371 1.25 10.1875 1.3375 10.3625 1.5125C10.5375 1.6875 10.625 1.90129 10.625 2.15387V7.84613C10.625 8.09871 10.5375 8.3125 10.3625 8.4875C10.1875 8.6625 9.97371 8.75 9.72113 8.75H4.02888ZM4.02888 8H9.72113C9.75963 8 9.79488 7.98396 9.82688 7.95188C9.85896 7.91988 9.875 7.88462 9.875 7.84613V2.15387C9.875 2.11537 9.85896 2.08012 9.82688 2.04812C9.79488 2.01604 9.75963 2 9.72113 2H4.02888C3.99038 2 3.95513 2.01604 3.92313 2.04812C3.89104 2.08012 3.875 2.11537 3.875 2.15387V7.84613C3.875 7.88462 3.89104 7.91988 3.92313 7.95188C3.95513 7.98396 3.99038 8 4.02888 8ZM2.27887 10.5C2.02629 10.5 1.8125 10.4125 1.6375 10.2375C1.4625 10.0625 1.375 9.84871 1.375 9.59613V3.52888C1.375 3.42246 1.41092 3.33333 1.48275 3.2615C1.5545 3.18975 1.64358 3.15387 1.75 3.15387C1.85642 3.15387 1.94554 3.18975 2.01737 3.2615C2.08912 3.33333 2.125 3.42246 2.125 3.52888V9.59613C2.125 9.63463 2.14104 9.66988 2.17313 9.70188C2.20513 9.73396 2.24037 9.75 2.27887 9.75H8.34613C8.45254 9.75 8.54167 9.78588 8.6135 9.85763C8.68525 9.92946 8.72113 10.0186 8.72113 10.125C8.72113 10.2314 8.68525 10.3205 8.6135 10.3923C8.54167 10.4641 8.45254 10.5 8.34613 10.5H2.27887Z" fill="#C7C8C9"/>
</g>
</svg>
