<svg width="12" height="12" viewBox="0 0 12 12" fill="none" xmlns="http://www.w3.org/2000/svg">
<path id="Vector" d="M6.00001 6.87789L1.77251 11.1056C1.65709 11.2209 1.51202 11.2799 1.3373 11.2827C1.16272 11.2853 1.01501 11.2263 0.894176 11.1056C0.773482 10.9848 0.713135 10.8384 0.713135 10.6664C0.713135 10.4945 0.773482 10.3481 0.894176 10.2273L5.12189 5.99977L0.894176 1.77227C0.778899 1.65685 0.719871 1.51178 0.717093 1.33706C0.714454 1.16247 0.773482 1.01477 0.894176 0.893932C1.01501 0.773238 1.1614 0.712891 1.33334 0.712891C1.50529 0.712891 1.65168 0.773238 1.77251 0.893932L6.00001 5.12164L10.2275 0.893932C10.3429 0.778655 10.488 0.719627 10.6627 0.716849C10.8373 0.71421 10.985 0.773238 11.1058 0.893932C11.2265 1.01477 11.2869 1.16115 11.2869 1.3331C11.2869 1.50504 11.2265 1.65143 11.1058 1.77227L6.87814 5.99977L11.1058 10.2273C11.2211 10.3427 11.2801 10.4878 11.2829 10.6625C11.2856 10.8371 11.2265 10.9848 11.1058 11.1056C10.985 11.2263 10.8386 11.2866 10.6667 11.2866C10.4947 11.2866 10.3483 11.2263 10.2275 11.1056L6.00001 6.87789Z" fill="#848588"/>
</svg>
