<svg width="16" height="16" viewBox="0 0 16 16" fill="none" xmlns="http://www.w3.org/2000/svg">
<path d="M7.68001 9.4495L5.57917 7.34883C5.55028 7.31983 5.52751 7.28744 5.51084 7.25166C5.49417 7.216 5.48584 7.17772 5.48584 7.13683C5.48584 7.05516 5.51345 6.98416 5.56867 6.92383C5.6239 6.86361 5.69667 6.8335 5.78701 6.8335H10.2127C10.303 6.8335 10.3758 6.86394 10.431 6.92483C10.4862 6.98561 10.5138 7.05655 10.5138 7.13766C10.5138 7.158 10.4827 7.22838 10.4203 7.34883L8.31967 9.4495C8.27145 9.49783 8.22156 9.53311 8.17001 9.55533C8.11845 9.57755 8.06173 9.58866 7.99984 9.58866C7.93795 9.58866 7.88123 9.57755 7.82967 9.55533C7.77812 9.53311 7.72823 9.49783 7.68001 9.4495Z" fill="#171719"/>
</svg>
