<svg width="20" height="20" viewBox="0 0 20 20" fill="none" xmlns="http://www.w3.org/2000/svg">
<g id="filter_none_24">
<path id="Vector" d="M7.01668 14.3514C6.63439 14.3514 6.31081 14.2189 6.04595 13.9541C5.78108 13.6892 5.64865 13.3656 5.64865 12.9833V4.36803C5.64865 3.98574 5.78108 3.66216 6.04595 3.3973C6.31081 3.13243 6.63439 3 7.01668 3H15.632C16.0143 3 16.3378 3.13243 16.6027 3.3973C16.8676 3.66216 17 3.98574 17 4.36803V12.9833C17 13.3656 16.8676 13.6892 16.6027 13.9541C16.3378 14.2189 16.0143 14.3514 15.632 14.3514H7.01668ZM7.01668 13.2162H15.632C15.6902 13.2162 15.7436 13.1919 15.792 13.1434C15.8406 13.0949 15.8649 13.0416 15.8649 12.9833V4.36803C15.8649 4.30976 15.8406 4.2564 15.792 4.20797C15.7436 4.15941 15.6902 4.13514 15.632 4.13514H7.01668C6.95841 4.13514 6.90505 4.15941 6.85662 4.20797C6.80806 4.2564 6.78378 4.30976 6.78378 4.36803V12.9833C6.78378 13.0416 6.80806 13.0949 6.85662 13.1434C6.90505 13.1919 6.95841 13.2162 7.01668 13.2162ZM4.36803 17C3.98574 17 3.66216 16.8676 3.3973 16.6027C3.13243 16.3378 3 16.0143 3 15.632V6.44911C3 6.28804 3.05436 6.15315 3.16308 6.04443C3.27168 5.93584 3.4065 5.88154 3.56757 5.88154C3.72863 5.88154 3.86352 5.93584 3.97224 6.04443C4.08084 6.15315 4.13514 6.28804 4.13514 6.44911V15.632C4.13514 15.6902 4.15941 15.7436 4.20797 15.792C4.25641 15.8406 4.30976 15.8649 4.36803 15.8649H13.5509C13.712 15.8649 13.8468 15.9192 13.9556 16.0278C14.0642 16.1365 14.1185 16.2714 14.1185 16.4324C14.1185 16.5935 14.0642 16.7283 13.9556 16.8369C13.8468 16.9456 13.712 17 13.5509 17H4.36803Z" fill="#848588"/>
</g>
</svg>
