<svg width="20" height="20" viewBox="0 0 20 20" fill="none" xmlns="http://www.w3.org/2000/svg">
<g id="edit_square_24">
<path id="Vector" d="M4.33881 17C3.96469 17 3.64802 16.8706 3.38881 16.6119C3.1296 16.3532 3 16.0371 3 15.6636V5.76936C3 5.39592 3.1296 5.07984 3.38881 4.8211C3.64802 4.56237 3.96469 4.43301 4.33881 4.43301H9.41336C9.59851 4.43301 9.73737 4.49104 9.82994 4.6071C9.92252 4.72328 9.9688 4.85006 9.9688 4.98743C9.9688 5.12481 9.9206 5.25159 9.8242 5.36777C9.7278 5.48383 9.58703 5.54186 9.40188 5.54186H4.33881C4.28178 5.54186 4.22957 5.56558 4.18217 5.61301C4.13465 5.66032 4.11089 5.71244 4.11089 5.76936V15.6636C4.11089 15.7206 4.13465 15.7727 4.18217 15.82C4.22957 15.8674 4.28178 15.8911 4.33881 15.8911H14.2513C14.3083 15.8911 14.3605 15.8674 14.4079 15.82C14.4554 15.7727 14.4792 15.7206 14.4792 15.6636V10.5629C14.4792 10.3781 14.5373 10.2395 14.6536 10.1471C14.77 10.0547 14.897 10.0085 15.0346 10.0085C15.1723 10.0085 15.2993 10.0547 15.4157 10.1471C15.532 10.2395 15.5901 10.3781 15.5901 10.5629V15.6636C15.5901 16.0371 15.4605 16.3532 15.2013 16.6119C14.9421 16.8706 14.6254 17 14.2513 17H4.33881ZM7.44356 11.8963V10.5801C7.44356 10.4018 7.47825 10.2305 7.54762 10.0662C7.61686 9.90168 7.71227 9.75882 7.83386 9.63759L14.1532 3.32988C14.2679 3.21518 14.3942 3.13152 14.532 3.07891C14.6696 3.0263 14.8096 3 14.9521 3C15.0974 3 15.2369 3.0263 15.3707 3.07891C15.5046 3.13152 15.6266 3.21278 15.7367 3.32268L16.6667 4.2482C16.774 4.3629 16.8564 4.48943 16.9139 4.62779C16.9713 4.76615 17 4.90642 17 5.0486C17 5.19078 16.9756 5.32865 16.9267 5.46221C16.8778 5.59588 16.7959 5.72002 16.681 5.8346L10.3404 12.1637C10.2188 12.285 10.0757 12.3821 9.91104 12.4552C9.74625 12.5281 9.57462 12.5646 9.39614 12.5646H8.11306C7.92211 12.5646 7.76282 12.5008 7.63519 12.3733C7.50744 12.2459 7.44356 12.0869 7.44356 11.8963ZM8.55445 11.4557H9.47742L14.0932 6.84827L13.6318 6.38773L13.1376 5.91296L8.55445 10.4877V11.4557Z" fill="#848588"/>
</g>
</svg>
