<svg width="19" height="16" viewBox="0 0 19 16" fill="none" xmlns="http://www.w3.org/2000/svg">
<path id="Vector" d="M1.80775 0.5L3.18275 3.25C3.29942 3.48333 3.46608 3.66667 3.68275 3.8C3.89942 3.93333 4.13275 4 4.38275 4C4.88275 4 5.26608 3.7875 5.53275 3.3625C5.79942 2.9375 5.81608 2.5 5.58275 2.05L4.80775 0.5H6.80775L8.18275 3.25C8.29942 3.48333 8.46608 3.66667 8.68275 3.8C8.89942 3.93333 9.13275 4 9.38275 4C9.88275 4 10.2661 3.7875 10.5328 3.3625C10.7994 2.9375 10.8161 2.5 10.5828 2.05L9.80775 0.5H11.8077L13.1827 3.25C13.2994 3.48333 13.4661 3.66667 13.6827 3.8C13.8994 3.93333 14.1328 4 14.3828 4C14.8828 4 15.2661 3.7875 15.5328 3.3625C15.7994 2.9375 15.8161 2.5 15.5828 2.05L14.8077 0.5H17.1923C17.6974 0.5 18.125 0.675 18.475 1.025C18.825 1.375 19 1.80258 19 2.30775V13.6923C19 14.1974 18.825 14.625 18.475 14.975C18.125 15.325 17.6974 15.5 17.1923 15.5H1.80775C1.30258 15.5 0.875 15.325 0.525 14.975C0.175 14.625 0 14.1974 0 13.6923V2.30775C0 1.80258 0.175 1.375 0.525 1.025C0.875 0.675 1.30258 0.5 1.80775 0.5ZM1.5 5.5V13.6923C1.5 13.7821 1.52883 13.8558 1.5865 13.9135C1.64417 13.9712 1.71792 14 1.80775 14H17.1923C17.2821 14 17.3558 13.9712 17.4135 13.9135C17.4712 13.8558 17.5 13.7821 17.5 13.6923V5.5H1.5Z" fill="white"/>
</svg>
