<svg width="10" height="10" viewBox="0 0 10 10" fill="none" xmlns="http://www.w3.org/2000/svg">
<path id="Vector" d="M5.00001 5.70153L1.61801 9.0837C1.52567 9.17592 1.40962 9.22314 1.26984 9.22537C1.13017 9.22748 1.01201 9.18025 0.915341 9.0837C0.818786 8.98703 0.770508 8.86992 0.770508 8.73237C0.770508 8.59481 0.818786 8.4777 0.915341 8.38103L4.29751 4.99903L0.915341 1.61703C0.823119 1.5247 0.775897 1.40864 0.773675 1.26886C0.771563 1.1292 0.818786 1.01103 0.915341 0.914365C1.01201 0.817809 1.12912 0.769531 1.26667 0.769531C1.40423 0.769531 1.52134 0.817809 1.61801 0.914365L5.00001 4.29653L8.38201 0.914365C8.47434 0.822142 8.5904 0.77492 8.73017 0.772698C8.86984 0.770587 8.98801 0.817809 9.08467 0.914365C9.18123 1.01103 9.22951 1.12814 9.22951 1.2657C9.22951 1.40325 9.18123 1.52037 9.08467 1.61703L5.70251 4.99903L9.08467 8.38103C9.1769 8.47337 9.22412 8.58942 9.22634 8.7292C9.22845 8.86887 9.18123 8.98703 9.08467 9.0837C8.98801 9.18025 8.8709 9.22853 8.73334 9.22853C8.59579 9.22853 8.47867 9.18025 8.38201 9.0837L5.00001 5.70153Z" fill="#C7C8C9"/>
</svg>
