<svg width="32" height="32" viewBox="0 0 32 32" fill="none" xmlns="http://www.w3.org/2000/svg">
<g id="fullscreen_24">
<path id="Vector" d="M6.6665 25.3337H9.9485C10.2318 25.3337 10.4694 25.4295 10.6612 25.6213C10.8527 25.8131 10.9485 26.0507 10.9485 26.334C10.9485 26.6175 10.8527 26.855 10.6612 27.0463C10.4694 27.2379 10.2318 27.3337 9.9485 27.3337H5.87184C5.53028 27.3337 5.24406 27.2181 5.01317 26.987C4.78206 26.7561 4.6665 26.4699 4.6665 26.1283V22.0517C4.6665 21.7683 4.76239 21.5308 4.95417 21.339C5.14595 21.1474 5.3835 21.0517 5.66684 21.0517C5.95039 21.0517 6.18784 21.1474 6.37917 21.339C6.57073 21.5308 6.6665 21.7683 6.6665 22.0517V25.3337ZM25.3458 25.3337V22.0517C25.3458 21.7683 25.4417 21.5308 25.6335 21.339C25.8253 21.1474 26.063 21.0517 26.3465 21.0517C26.6298 21.0517 26.8673 21.1474 27.0588 21.339C27.2502 21.5308 27.3458 21.7683 27.3458 22.0517V26.1283C27.3458 26.4699 27.2304 26.7561 26.9995 26.987C26.7684 27.2181 26.4822 27.3337 26.1408 27.3337H22.0638C21.7805 27.3337 21.5431 27.2378 21.3515 27.046C21.1597 26.8542 21.0638 26.6167 21.0638 26.3333C21.0638 26.0498 21.1597 25.8123 21.3515 25.621C21.5431 25.4294 21.7805 25.3337 22.0638 25.3337H25.3458ZM6.6665 6.66699V9.94899C6.6665 10.2323 6.57061 10.4699 6.37884 10.6617C6.18706 10.8532 5.9495 10.949 5.66617 10.949C5.38262 10.949 5.14517 10.8532 4.95384 10.6617C4.76228 10.4699 4.6665 10.2323 4.6665 9.94899V5.87232C4.6665 5.53077 4.78206 5.24455 5.01317 5.01366C5.24406 4.78255 5.53028 4.66699 5.87184 4.66699H9.9485C10.2318 4.66699 10.4694 4.76288 10.6612 4.95466C10.8527 5.14644 10.9485 5.38399 10.9485 5.66733C10.9485 5.95088 10.8527 6.18833 10.6612 6.37966C10.4694 6.57121 10.2318 6.66699 9.9485 6.66699H6.6665ZM25.3458 6.66699H22.0638C21.7805 6.66699 21.5431 6.5711 21.3515 6.37933C21.1597 6.18755 21.0638 5.94999 21.0638 5.66666C21.0638 5.3831 21.1597 5.14566 21.3515 4.95433C21.5431 4.76277 21.7805 4.66699 22.0638 4.66699H26.1408C26.4822 4.66699 26.7684 4.78255 26.9995 5.01366C27.2304 5.24455 27.3458 5.53077 27.3458 5.87232V9.94899C27.3458 10.2323 27.25 10.4699 27.0582 10.6617C26.8666 10.8532 26.6291 10.949 26.3455 10.949C26.0619 10.949 25.8245 10.8532 25.6332 10.6617C25.4416 10.4699 25.3458 10.2323 25.3458 9.94899V6.66699Z" fill="white"/>
</g>
</svg>
