<svg width="16" height="17" viewBox="0 0 16 17" fill="none" xmlns="http://www.w3.org/2000/svg">
<path id="Vector" d="M0.573014 11.128C0.377014 10.9794 0.27993 10.7842 0.281764 10.5425C0.283764 10.3009 0.382847 10.1024 0.579014 9.94728C0.717347 9.84611 0.869264 9.79553 1.03476 9.79553C1.2001 9.79553 1.35201 9.84611 1.49051 9.94728L7.80776 14.8358C7.86543 14.8806 7.92951 14.903 8.00001 14.903C8.07051 14.903 8.1346 14.8806 8.19226 14.8358L14.5095 9.94728C14.648 9.84611 14.7999 9.79553 14.9653 9.79553C15.1308 9.79553 15.2827 9.84611 15.421 9.94728C15.6172 10.1024 15.7163 10.3009 15.7183 10.5425C15.7201 10.7842 15.623 10.9794 15.427 11.128L9.10951 16.0318C8.77501 16.2896 8.40518 16.4185 8.00001 16.4185C7.59485 16.4185 7.22501 16.2896 6.89051 16.0318L0.573014 11.128ZM6.89051 11.5973L1.64051 7.51653C1.17501 7.15503 0.942264 6.68136 0.942264 6.09553C0.942264 5.50953 1.17501 5.03578 1.64051 4.67428L6.89051 0.593532C7.22501 0.335865 7.59485 0.207031 8.00001 0.207031C8.40518 0.207031 8.77501 0.335865 9.10951 0.593532L14.3595 4.67428C14.825 5.03578 15.0578 5.50953 15.0578 6.09553C15.0578 6.68136 14.825 7.15503 14.3595 7.51653L9.10951 11.5973C8.77501 11.8549 8.40518 11.9838 8.00001 11.9838C7.59485 11.9838 7.22501 11.8549 6.89051 11.5973ZM8.19226 10.4013L13.4328 6.33578C13.5161 6.27178 13.5578 6.1917 13.5578 6.09553C13.5578 5.99936 13.5161 5.9192 13.4328 5.85503L8.19226 1.78978C8.1346 1.74478 8.07051 1.72228 8.00001 1.72228C7.92951 1.72228 7.86543 1.74478 7.80776 1.78978L2.56726 5.85503C2.48393 5.9192 2.44226 5.99936 2.44226 6.09553C2.44226 6.1917 2.48393 6.27178 2.56726 6.33578L7.80776 10.4013C7.86543 10.4461 7.92951 10.4685 8.00001 10.4685C8.07051 10.4685 8.1346 10.4461 8.19226 10.4013Z" fill="#848588"/>
</svg>
