<svg width="14" height="14" viewBox="0 0 14 14" fill="none" xmlns="http://www.w3.org/2000/svg">
<path fill-rule="evenodd" clip-rule="evenodd" d="M2.8 0H8.4484L13 4.42517V14H7.0001V12.8333H11.8V5.25H7.6V1.16667H2.8C2.64087 1.16667 2.48826 1.22812 2.37574 1.33752C2.26321 1.44692 2.2 1.59529 2.2 1.75V7H1V1.75C1 1.28587 1.18964 0.840752 1.52721 0.512563C1.86477 0.184374 2.32261 0 2.8 0ZM10.9516 4.08333L8.8 1.9915V4.08333H10.9516Z" fill="#005EEB"/>
<path fill-rule="evenodd" clip-rule="evenodd" d="M1.89031 10.0573L2.52041 8.16699H3.31292L3.94302 10.0573L5.83333 10.6874V11.4799L3.94302 12.11L3.31292 14.0003H2.52041L1.89031 12.11L0 11.4799V10.6874L1.89031 10.0573Z" fill="#005EEB"/>
</svg>
