<svg width="20" height="20" viewBox="0 0 20 20" fill="none" xmlns="http://www.w3.org/2000/svg">
<path d="M5.83337 10.0463C5.83337 10.5672 5.93199 11.0735 6.12921 11.5654C6.32632 12.0573 6.63371 12.5116 7.05137 12.9283L7.47437 13.3514V12.0258C7.47437 11.8841 7.52232 11.7653 7.61821 11.6694C7.7141 11.5737 7.83287 11.5258 7.97454 11.5258C8.11632 11.5258 8.2351 11.5737 8.33087 11.6694C8.42654 11.7653 8.47437 11.8841 8.47437 12.0258V14.5129C8.47437 14.6836 8.41665 14.8267 8.30121 14.9423C8.18565 15.0577 8.04254 15.1154 7.87187 15.1154H5.38471C5.24304 15.1154 5.12426 15.0675 5.02837 14.9716C4.9326 14.8757 4.88471 14.7569 4.88471 14.6153C4.88471 14.4735 4.9326 14.3548 5.02837 14.2591C5.12426 14.1633 5.24304 14.1154 5.38471 14.1154H6.83337L6.34871 13.6514C5.80093 13.1445 5.41143 12.5768 5.18021 11.9481C4.94899 11.3195 4.83337 10.6856 4.83337 10.0463C4.83337 9.04027 5.09149 8.12404 5.60771 7.2976C6.12393 6.47104 6.8171 5.83427 7.68721 5.38727C7.80854 5.31971 7.9361 5.31204 8.06987 5.36426C8.20365 5.41638 8.29193 5.50927 8.33471 5.64293C8.37737 5.76827 8.37476 5.89482 8.32687 6.0226C8.27887 6.15049 8.19387 6.24854 8.07187 6.31677C7.38899 6.6851 6.84515 7.19982 6.44037 7.86093C6.03571 8.52215 5.83337 9.2506 5.83337 10.0463ZM14.1667 9.95393C14.1667 9.43304 14.0681 8.92665 13.8709 8.43477C13.6738 7.94288 13.3664 7.4886 12.9487 7.07193L12.5257 6.64877V7.97443C12.5257 8.1161 12.4778 8.23488 12.3819 8.33077C12.286 8.42654 12.1672 8.47443 12.0255 8.47443C11.8838 8.47443 11.765 8.42654 11.6692 8.33077C11.5735 8.23488 11.5257 8.1161 11.5257 7.97443V5.48727C11.5257 5.3166 11.5834 5.17349 11.6989 5.05793C11.8144 4.94249 11.9575 4.88477 12.1282 4.88477H14.6154C14.757 4.88477 14.8758 4.93271 14.9717 5.0286C15.0675 5.12449 15.1154 5.24327 15.1154 5.38493C15.1154 5.52671 15.0675 5.64543 14.9717 5.7411C14.8758 5.83688 14.757 5.88477 14.6154 5.88477H13.1667L13.6514 6.34877C14.1779 6.87532 14.5622 7.4476 14.804 8.0656C15.0458 8.68349 15.1667 9.31327 15.1667 9.95493C15.1667 10.9603 14.9097 11.8751 14.3955 12.6994C13.8814 13.5238 13.1893 14.1594 12.3192 14.6064C12.1979 14.674 12.0703 14.6828 11.9365 14.6328C11.8028 14.5828 11.7145 14.4909 11.6719 14.3573C11.6291 14.2319 11.6319 14.1052 11.6802 13.9771C11.7284 13.8489 11.8111 13.751 11.9282 13.6834C12.6111 13.3151 13.1549 12.8004 13.5597 12.1393C13.9644 11.478 14.1667 10.7496 14.1667 9.95393Z" fill="#C7C8C9"/>
</svg>
