<svg width="32" height="32" viewBox="0 0 32 32" fill="none" xmlns="http://www.w3.org/2000/svg">
<g id="Component 2">
<path id="Vector" d="M16.0002 28.6663C14.2635 28.6663 12.6246 28.3335 11.0835 27.6677C9.54238 27.0019 8.19838 26.0955 7.0515 24.9483C5.90438 23.8015 4.99794 22.4575 4.33216 20.9163C3.66639 19.3752 3.3335 17.7363 3.3335 15.9997C3.3335 14.2492 3.66639 12.6069 4.33216 11.0727C4.99794 9.53845 5.90438 8.1979 7.0515 7.05101C8.19838 5.9039 9.54238 4.99745 11.0835 4.33168C12.6246 3.6659 14.2635 3.33301 16.0002 3.33301C17.7506 3.33301 19.3929 3.6659 20.9272 4.33168C22.4614 4.99745 23.8019 5.9039 24.9488 7.05101C26.0959 8.1979 27.0024 9.53845 27.6682 11.0727C28.3339 12.6069 28.6668 14.2492 28.6668 15.9997C28.6668 17.7363 28.3339 19.3752 27.6682 20.9163C27.0024 22.4575 26.0959 23.8015 24.9488 24.9483C23.8019 26.0955 22.4614 27.0019 20.9272 27.6677C19.3929 28.3335 17.7506 28.6663 16.0002 28.6663ZM16.0002 26.638C16.6806 25.7356 17.2533 24.8253 17.7182 23.9073C18.1831 22.9893 18.5617 21.9859 18.8542 20.897H13.1462C13.4557 22.0201 13.8387 23.0407 14.2952 23.9587C14.7514 24.8767 15.3197 25.7698 16.0002 26.638ZM13.4182 26.2713C12.9071 25.538 12.4481 24.7043 12.0412 23.7703C11.6343 22.8361 11.3181 21.8783 11.0925 20.897H6.5695C7.27372 22.2817 8.21816 23.445 9.40283 24.387C10.5875 25.3288 11.9259 25.9569 13.4182 26.2713ZM18.5822 26.2713C20.0744 25.9569 21.4128 25.3288 22.5975 24.387C23.7822 23.445 24.7266 22.2817 25.4308 20.897H20.9078C20.6394 21.8868 20.3017 22.8488 19.8948 23.783C19.4882 24.7172 19.0506 25.5467 18.5822 26.2713ZM5.73083 18.897H10.6875C10.6037 18.4015 10.5429 17.9156 10.5052 17.4393C10.4676 16.9633 10.4488 16.4835 10.4488 15.9997C10.4488 15.5159 10.4676 15.036 10.5052 14.56C10.5429 14.0838 10.6037 13.5979 10.6875 13.1023H5.73083C5.60261 13.5552 5.50438 14.0261 5.43616 14.515C5.36772 15.0039 5.3335 15.4988 5.3335 15.9997C5.3335 16.5006 5.36772 16.9955 5.43616 17.4843C5.50438 17.9732 5.60261 18.4441 5.73083 18.897ZM12.6872 18.897H19.3132C19.3967 18.4015 19.4574 17.9199 19.4952 17.4523C19.5327 16.9848 19.5515 16.5006 19.5515 15.9997C19.5515 15.4988 19.5327 15.0146 19.4952 14.547C19.4574 14.0795 19.3967 13.5979 19.3132 13.1023H12.6872C12.6036 13.5979 12.5429 14.0795 12.5052 14.547C12.4676 15.0146 12.4488 15.4988 12.4488 15.9997C12.4488 16.5006 12.4676 16.9848 12.5052 17.4523C12.5429 17.9199 12.6036 18.4015 12.6872 18.897ZM21.3128 18.897H26.2695C26.3977 18.4441 26.4959 17.9732 26.5642 17.4843C26.6326 16.9955 26.6668 16.5006 26.6668 15.9997C26.6668 15.4988 26.6326 15.0039 26.5642 14.515C26.4959 14.0261 26.3977 13.5552 26.2695 13.1023H21.3128C21.3966 13.5979 21.4574 14.0838 21.4952 14.56C21.5327 15.036 21.5515 15.5159 21.5515 15.9997C21.5515 16.4835 21.5327 16.9633 21.4952 17.4393C21.4574 17.9156 21.3966 18.4015 21.3128 18.897ZM20.9078 11.1023H25.4308C24.7182 9.70056 23.7802 8.53723 22.6168 7.61234C21.4535 6.68767 20.1086 6.05523 18.5822 5.71501C19.0933 6.49101 19.5479 7.33978 19.9462 8.26134C20.3446 9.18267 20.6652 10.1297 20.9078 11.1023ZM13.1462 11.1023H18.8542C18.5446 9.98767 18.1553 8.96067 17.6862 8.02134C17.2168 7.08201 16.6548 6.19534 16.0002 5.36134C15.3455 6.19534 14.7835 7.08201 14.3142 8.02134C13.8451 8.96067 13.4557 9.98767 13.1462 11.1023ZM6.5695 11.1023H11.0925C11.3352 10.1297 11.6557 9.18267 12.0542 8.26134C12.4524 7.33978 12.9071 6.49101 13.4182 5.71501C11.8831 6.05523 10.5361 6.6899 9.37716 7.61901C8.21805 8.5479 7.28216 9.70901 6.5695 11.1023Z" fill="white"/>
</g>
</svg>
