<svg width="25" height="24" viewBox="0 0 25 24" fill="none" xmlns="http://www.w3.org/2000/svg">
<path d="M7.25 17.2496H10.5605L20.7927 7.01733C21.231 6.57796 21.4772 5.98269 21.4772 5.36208C21.4772 4.74148 21.231 4.1462 20.7927 3.70683C20.347 3.28075 19.7541 3.04297 19.1375 3.04297C18.5209 3.04297 17.928 3.28075 17.4823 3.70683L7.25 13.9391V17.2496ZM8.75 14.5601L18.5427 4.76733C18.7029 4.6143 18.916 4.5289 19.1375 4.5289C19.359 4.5289 19.5721 4.6143 19.7323 4.76733C19.8897 4.92522 19.9781 5.1391 19.9781 5.36208C19.9781 5.58506 19.8897 5.79895 19.7323 5.95683L9.9395 15.7496H8.75V14.5601Z" fill="#C7C8C9"/>
<path d="M21.2157 8.7165L20 9.93225V15H15.5V19.5H5V5.25C5 5.05109 5.07902 4.86032 5.21967 4.71967C5.36032 4.57902 5.55109 4.5 5.75 4.5H14.5685L15.7843 3.28425C15.8938 3.18272 16.0092 3.0878 16.13 3L5.75 3C5.15326 3 4.58097 3.23705 4.15901 3.65901C3.73705 4.08097 3.5 4.65326 3.5 5.25L3.5 21H17.3105L21.5 16.8105V8.37075C21.412 8.4914 21.3171 8.60684 21.2157 8.7165ZM17 19.1895V16.5H19.6895L17 19.1895Z" fill="#C7C8C9"/>
</svg>
