<svg width="32" height="32" viewBox="0 0 32 32" fill="none" xmlns="http://www.w3.org/2000/svg">
<g id="Component 9">
<path id="Vector" d="M14.9487 19.333H11.2053C10.8638 19.333 10.5776 19.2175 10.3467 18.9864C10.1156 18.7555 10 18.4693 10 18.1277V13.8717C10 13.5301 10.1156 13.2439 10.3467 13.013C10.5776 12.7819 10.8638 12.6664 11.2053 12.6664H14.9487L18.9383 8.6767C19.2581 8.35714 19.6261 8.28503 20.0423 8.46037C20.4586 8.6357 20.6667 8.94881 20.6667 9.3997V22.5997C20.6667 23.0506 20.4586 23.3637 20.0423 23.539C19.6261 23.7144 19.2581 23.6423 18.9383 23.3227L14.9487 19.333Z" fill="white"/>
</g>
</svg>
