<svg width="32" height="32" viewBox="0 0 32 32" fill="none" xmlns="http://www.w3.org/2000/svg">
<path d="M20.6666 24.6663C20.1213 24.6663 19.6516 24.4693 19.2576 24.0753C18.8636 23.6813 18.6666 23.2117 18.6666 22.6663V9.33301C18.6666 8.78767 18.8636 8.31801 19.2576 7.92401C19.6516 7.53001 20.1213 7.33301 20.6666 7.33301H21.6666C22.2119 7.33301 22.6816 7.53001 23.0756 7.92401C23.4696 8.31801 23.6666 8.78767 23.6666 9.33301V22.6663C23.6666 23.2117 23.4696 23.6813 23.0756 24.0753C22.6816 24.4693 22.2119 24.6663 21.6666 24.6663H20.6666ZM10.3333 24.6663C9.78792 24.6663 9.31825 24.4693 8.92425 24.0753C8.53025 23.6813 8.33325 23.2117 8.33325 22.6663V9.33301C8.33325 8.78767 8.53025 8.31801 8.92425 7.92401C9.31825 7.53001 9.78792 7.33301 10.3333 7.33301H11.3333C11.8786 7.33301 12.3483 7.53001 12.7423 7.92401C13.1363 8.31801 13.3333 8.78767 13.3333 9.33301V22.6663C13.3333 23.2117 13.1363 23.6813 12.7423 24.0753C12.3483 24.4693 11.8786 24.6663 11.3333 24.6663H10.3333Z" fill="white"/>
</svg>
