<svg width="20" height="20" viewBox="0 0 20 20" fill="none" xmlns="http://www.w3.org/2000/svg">
<g id="edit_note_24dp">
<path id="Vector" d="M4.375 11.6667C4.19792 11.6667 4.04951 11.6067 3.92979 11.4869C3.80993 11.367 3.75 11.2185 3.75 11.0415C3.75 10.8642 3.80993 10.7158 3.92979 10.5963C4.04951 10.4765 4.19792 10.4167 4.375 10.4167H8.95833C9.13542 10.4167 9.28389 10.4766 9.40375 10.5965C9.52347 10.7163 9.58333 10.8648 9.58333 11.0419C9.58333 11.2191 9.52347 11.3675 9.40375 11.4871C9.28389 11.6068 9.13542 11.6667 8.95833 11.6667H4.375ZM4.375 8.33333C4.19792 8.33333 4.04951 8.2734 3.92979 8.15354C3.80993 8.03368 3.75 7.88521 3.75 7.70812C3.75 7.5309 3.80993 7.3825 3.92979 7.26292C4.04951 7.14319 4.19792 7.08333 4.375 7.08333H12.2917C12.4687 7.08333 12.6172 7.14326 12.7371 7.26313C12.8568 7.38299 12.9167 7.53146 12.9167 7.70854C12.9167 7.88576 12.8568 8.03417 12.7371 8.15375C12.6172 8.27347 12.4687 8.33333 12.2917 8.33333H4.375ZM4.375 5C4.19792 5 4.04951 4.94007 3.92979 4.82021C3.80993 4.70035 3.75 4.55187 3.75 4.37479C3.75 4.19757 3.80993 4.04917 3.92979 3.92958C4.04951 3.80986 4.19792 3.75 4.375 3.75H12.2917C12.4687 3.75 12.6172 3.80993 12.7371 3.92979C12.8568 4.04965 12.9167 4.19813 12.9167 4.37521C12.9167 4.55243 12.8568 4.70083 12.7371 4.82042C12.6172 4.94014 12.4687 5 12.2917 5H4.375ZM10.9296 15.4967V14.3621C10.9296 14.264 10.9477 14.169 10.984 14.0771C11.0203 13.9851 11.0775 13.9001 11.1554 13.8221L15.4535 9.54479C15.5572 9.44118 15.669 9.36826 15.7892 9.32604C15.9093 9.28396 16.0294 9.26292 16.1496 9.26292C16.2806 9.26292 16.4073 9.28743 16.5298 9.33646C16.6523 9.38562 16.7636 9.45937 16.8637 9.55771L17.6346 10.3365C17.7243 10.4402 17.7937 10.5524 17.8429 10.6731C17.8921 10.7938 17.9167 10.9145 17.9167 11.0352C17.9167 11.1559 17.8942 11.2788 17.8494 11.4038C17.8045 11.5288 17.7329 11.6431 17.6346 11.7467L13.3573 16.024C13.2794 16.102 13.1944 16.1592 13.1025 16.1954C13.0104 16.2318 12.9153 16.25 12.8173 16.25H11.6827C11.4692 16.25 11.2903 16.1778 11.146 16.0333C11.0017 15.889 10.9296 15.7101 10.9296 15.4967ZM11.9231 15.2565H12.7148L15.4198 12.5383L15.0369 12.1425L14.649 11.7517L11.9231 14.4648V15.2565ZM15.0369 12.1425L14.649 11.7517L15.4198 12.5383L15.0369 12.1425Z" fill="#848588"/>
</g>
</svg>
