<svg width="13" height="12" viewBox="0 0 13 12" fill="none" xmlns="http://www.w3.org/2000/svg">
<g clip-path="url(#clip0_2872_19176)">
<path d="M11 0H2C1.60218 0 1.22064 0.158035 0.93934 0.43934C0.658035 0.720644 0.5 1.10218 0.5 1.5L0.5 12H12.5V1.5C12.5 1.10218 12.342 0.720644 12.0607 0.43934C11.7794 0.158035 11.3978 0 11 0V0ZM2 1H11C11.1326 1 11.2598 1.05268 11.3536 1.14645C11.4473 1.24021 11.5 1.36739 11.5 1.5V10.293L6.0605 4.8535C5.77921 4.57229 5.39775 4.41432 5 4.41432C4.60225 4.41432 4.22079 4.57229 3.9395 4.8535L1.5 7.293V1.5C1.5 1.36739 1.55268 1.24021 1.64645 1.14645C1.74021 1.05268 1.86739 1 2 1ZM1.5 8.707L4.6465 5.5605C4.74026 5.46676 4.86742 5.41411 5 5.41411C5.13258 5.41411 5.25974 5.46676 5.3535 5.5605L10.793 11H1.5V8.707Z" fill="#171719"/>
<path d="M8.5 5C8.79667 5 9.08668 4.91203 9.33336 4.74721C9.58003 4.58238 9.77229 4.34811 9.88582 4.07403C9.99935 3.79994 10.0291 3.49834 9.97118 3.20737C9.9133 2.91639 9.77044 2.64912 9.56066 2.43934C9.35088 2.22956 9.08361 2.0867 8.79264 2.02882C8.50166 1.97094 8.20006 2.00065 7.92597 2.11418C7.65189 2.22771 7.41762 2.41997 7.2528 2.66665C7.08797 2.91332 7 3.20333 7 3.5C7 3.89783 7.15804 4.27936 7.43934 4.56066C7.72064 4.84197 8.10218 5 8.5 5ZM8.5 3C8.59889 3 8.69556 3.02933 8.77779 3.08427C8.86001 3.13921 8.9241 3.2173 8.96194 3.30866C8.99978 3.40002 9.00969 3.50056 8.99039 3.59755C8.9711 3.69454 8.92348 3.78363 8.85355 3.85355C8.78363 3.92348 8.69454 3.9711 8.59755 3.99039C8.50056 4.00969 8.40002 3.99978 8.30866 3.96194C8.2173 3.9241 8.13921 3.86001 8.08427 3.77779C8.02932 3.69556 8 3.59889 8 3.5C8 3.36739 8.05268 3.24022 8.14645 3.14645C8.24022 3.05268 8.36739 3 8.5 3Z" fill="#171719"/>
</g>
<defs>
<clipPath id="clip0_2872_19176">
<rect width="12" height="12" fill="white" transform="translate(0.5)"/>
</clipPath>
</defs>
</svg>
