<svg width="32" height="32" viewBox="0 0 32 32" fill="none" xmlns="http://www.w3.org/2000/svg">
<path d="M11.3333 21.9255V10.0741C11.3333 9.72214 11.454 9.43325 11.6956 9.20747C11.9371 8.98192 12.219 8.86914 12.5413 8.86914C12.6419 8.86914 12.7475 8.8837 12.8579 8.91281C12.9684 8.9417 13.0738 8.98525 13.1743 9.04347L22.5023 14.9818C22.6854 15.1067 22.8226 15.2563 22.9139 15.4305C23.0055 15.6049 23.0513 15.7947 23.0513 15.9998C23.0513 16.2049 23.0055 16.3947 22.9139 16.5691C22.8226 16.7434 22.6854 16.8929 22.5023 17.0178L13.1743 22.9561C13.0736 23.0144 12.9678 23.0579 12.8569 23.0868C12.7463 23.1159 12.6406 23.1305 12.5399 23.1305C12.2175 23.1305 11.9358 23.0177 11.6949 22.7921C11.4538 22.5664 11.3333 22.2775 11.3333 21.9255Z" fill="white"/>
</svg>
