<svg width="16" height="16" viewBox="0 0 16 16" fill="none" xmlns="http://www.w3.org/2000/svg">
<g clip-path="url(#clip0_2384_20737)">
<path d="M8.00025 1.33339C8.88459 1.33629 9.75957 1.51455 10.5746 1.85785C11.3896 2.20115 12.1284 2.70267 12.7483 3.33339H10.0003V4.66673H13.4289C13.7571 4.66637 14.0718 4.53583 14.3039 4.30373C14.536 4.07164 14.6666 3.75696 14.6669 3.42873V5.83856e-05H13.3336V2.05206C12.1852 1.01796 10.7616 0.339162 9.23519 0.0979309C7.7088 -0.1433 6.14521 0.0633964 4.73393 0.692967C3.32265 1.32254 2.12428 2.34795 1.28408 3.64492C0.443883 4.94189 -0.00207864 6.45472 0.000253239 8.00006H1.33359C1.33553 6.23254 2.03853 4.53798 3.28835 3.28816C4.53817 2.03834 6.23274 1.33533 8.00025 1.33339Z" fill="#C7C8C9"/>
<path d="M14.6668 8C14.6687 9.32356 14.2761 10.6177 13.539 11.717C12.802 12.8163 11.7539 13.671 10.5288 14.1719C9.30369 14.6728 7.95706 14.7971 6.66094 14.529C5.36482 14.2609 4.17804 13.6125 3.25216 12.6667H6.00016V11.3333H2.5715C2.24327 11.3337 1.92858 11.4642 1.69649 11.6963C1.46439 11.9284 1.33385 12.2431 1.3335 12.5713V16H2.66683V13.948C3.81518 14.9821 5.23883 15.6609 6.76522 15.9021C8.29162 16.1434 9.85521 15.9367 11.2665 15.3071C12.6778 14.6775 13.8761 13.6521 14.7163 12.3551C15.5565 11.0582 16.0025 9.54533 16.0002 8H14.6668Z" fill="#C7C8C9"/>
</g>
<defs>
<clipPath id="clip0_2384_20737">
<rect width="16" height="16" fill="white"/>
</clipPath>
</defs>
</svg>
