<svg width="40" height="40" viewBox="0 0 40 40" fill="none" xmlns="http://www.w3.org/2000/svg">
<g clip-path="url(#clip0_3681_16149)">
<path fill-rule="evenodd" clip-rule="evenodd" d="M30 20C30 18.0222 29.4135 16.0888 28.3147 14.4443C27.2159 12.7998 25.6541 11.5181 23.8268 10.7612C21.9996 10.0043 19.9889 9.8063 18.0491 10.1922C16.1093 10.578 14.3275 11.5304 12.9289 12.9289C11.5304 14.3275 10.578 16.1093 10.1922 18.0491C9.8063 19.9889 10.0043 21.9996 10.7612 23.8268C11.5181 25.6541 12.7998 27.2159 14.4443 28.3147C16.0888 29.4135 18.0222 30 20 30C22.6522 30 25.1957 28.9464 27.0711 27.0711C28.9464 25.1957 30 22.6522 30 20ZM16.47 19.53C16.4003 19.4604 16.345 19.3777 16.3073 19.2866C16.2696 19.1956 16.2502 19.098 16.2502 18.9995C16.2502 18.901 16.2696 18.8034 16.3073 18.7124C16.345 18.6214 16.4003 18.5387 16.47 18.469L19.47 15.469C19.5397 15.3993 19.6224 15.344 19.7134 15.3063C19.8044 15.2686 19.902 15.2492 20.0005 15.2492C20.099 15.2492 20.1966 15.2686 20.2876 15.3063C20.3787 15.344 20.4614 15.3993 20.531 15.469L23.531 18.469C23.6717 18.6097 23.7507 18.8005 23.7507 18.9995C23.7507 19.1985 23.6717 19.3893 23.531 19.53C23.3903 19.6707 23.1995 19.7497 23.0005 19.7497C22.8015 19.7497 22.6107 19.6707 22.47 19.53L20.75 17.81V24C20.75 24.1989 20.671 24.3897 20.5303 24.5303C20.3897 24.671 20.1989 24.75 20 24.75C19.8011 24.75 19.6103 24.671 19.4697 24.5303C19.329 24.3897 19.25 24.1989 19.25 24V17.811L17.53 19.53C17.3894 19.6705 17.1988 19.7493 17 19.7493C16.8013 19.7493 16.6106 19.6705 16.47 19.53Z" fill="#2257E2"/>
</g>
<defs>
<clipPath id="clip0_3681_16149">
<rect width="40" height="40" fill="white"/>
</clipPath>
</defs>
</svg>
