<svg width="32" height="32" viewBox="0 0 32 32" fill="none" xmlns="http://www.w3.org/2000/svg">
<g id="tune_24">
<path id="Vector" d="M15.9998 27.6663C15.7163 27.6663 15.4788 27.5704 15.2875 27.3787C15.0959 27.1871 15.0002 26.9497 15.0002 26.6663V21.333C15.0002 21.0497 15.0961 20.8122 15.2878 20.6207C15.4796 20.4289 15.7172 20.333 16.0005 20.333C16.2841 20.333 16.5215 20.4289 16.7128 20.6207C16.9044 20.8122 17.0002 21.0497 17.0002 21.333V22.9997H26.6668C26.9502 22.9997 27.1876 23.0956 27.3792 23.2873C27.5709 23.4791 27.6668 23.7167 27.6668 24C27.6668 24.2836 27.5709 24.521 27.3792 24.7123C27.1876 24.9039 26.9502 24.9997 26.6668 24.9997H17.0002V26.6663C17.0002 26.9497 16.9043 27.1871 16.7125 27.3787C16.5207 27.5704 16.2832 27.6663 15.9998 27.6663ZM5.3335 24.9997C5.05016 24.9997 4.81272 24.9038 4.62116 24.712C4.42939 24.5202 4.3335 24.2827 4.3335 23.9993C4.3335 23.7158 4.42939 23.4783 4.62116 23.287C4.81272 23.0955 5.05016 22.9997 5.3335 22.9997H10.6668C10.9502 22.9997 11.1876 23.0956 11.3792 23.2873C11.5709 23.4791 11.6668 23.7167 11.6668 24C11.6668 24.2836 11.5709 24.521 11.3792 24.7123C11.1876 24.9039 10.9502 24.9997 10.6668 24.9997H5.3335ZM10.6665 19.6663C10.3829 19.6663 10.1455 19.5705 9.95416 19.3787C9.76261 19.1871 9.66683 18.9497 9.66683 18.6663V16.9997H5.3335C5.05016 16.9997 4.81272 16.9038 4.62116 16.712C4.42939 16.5202 4.3335 16.2827 4.3335 15.9993C4.3335 15.7158 4.42939 15.4783 4.62116 15.287C4.81272 15.0955 5.05016 14.9997 5.3335 14.9997H9.66683V13.333C9.66683 13.0497 9.76272 12.8122 9.9545 12.6207C10.1463 12.4289 10.3838 12.333 10.6672 12.333C10.9507 12.333 11.1882 12.4289 11.3795 12.6207C11.5711 12.8122 11.6668 13.0497 11.6668 13.333V18.6663C11.6668 18.9497 11.5709 19.1871 11.3792 19.3787C11.1874 19.5705 10.9498 19.6663 10.6665 19.6663ZM16.0002 16.9997C15.7168 16.9997 15.4794 16.9038 15.2878 16.712C15.0961 16.5202 15.0002 16.2827 15.0002 15.9993C15.0002 15.7158 15.0961 15.4783 15.2878 15.287C15.4794 15.0955 15.7168 14.9997 16.0002 14.9997H26.6668C26.9502 14.9997 27.1876 15.0956 27.3792 15.2873C27.5709 15.4791 27.6668 15.7167 27.6668 16C27.6668 16.2836 27.5709 16.521 27.3792 16.7123C27.1876 16.9039 26.9502 16.9997 26.6668 16.9997H16.0002ZM21.3332 11.6663C21.0496 11.6663 20.8122 11.5705 20.6208 11.3787C20.4293 11.1871 20.3335 10.9497 20.3335 10.6663V5.33301C20.3335 5.04967 20.4294 4.81223 20.6212 4.62067C20.8129 4.4289 21.0505 4.33301 21.3338 4.33301C21.6174 4.33301 21.8548 4.4289 22.0462 4.62067C22.2377 4.81223 22.3335 5.04967 22.3335 5.33301V6.99967H26.6668C26.9502 6.99967 27.1876 7.09556 27.3792 7.28734C27.5709 7.47912 27.6668 7.71667 27.6668 8.00001C27.6668 8.28356 27.5709 8.52101 27.3792 8.71234C27.1876 8.9039 26.9502 8.99967 26.6668 8.99967H22.3335V10.6663C22.3335 10.9497 22.2376 11.1871 22.0458 11.3787C21.854 11.5705 21.6165 11.6663 21.3332 11.6663ZM5.3335 8.99967C5.05016 8.99967 4.81272 8.90379 4.62116 8.71201C4.42939 8.52023 4.3335 8.28267 4.3335 7.99934C4.3335 7.71579 4.42939 7.47834 4.62116 7.28701C4.81272 7.09545 5.05016 6.99967 5.3335 6.99967H16.0002C16.2835 6.99967 16.5209 7.09556 16.7125 7.28734C16.9043 7.47912 17.0002 7.71667 17.0002 8.00001C17.0002 8.28356 16.9043 8.52101 16.7125 8.71234C16.5209 8.9039 16.2835 8.99967 16.0002 8.99967H5.3335Z" fill="white"/>
</g>
</svg>
