<svg width="32" height="32" viewBox="0 0 32 32" fill="none" xmlns="http://www.w3.org/2000/svg">
<g id="Component 9">
<path id="Vector" d="M25.1284 15.9667C25.1284 14.1307 24.6373 12.4559 23.6551 10.9424C22.6731 9.42858 21.3556 8.29825 19.7027 7.55136C19.4463 7.43003 19.2574 7.2488 19.1361 7.00769C19.0147 6.7668 19.0011 6.52236 19.0951 6.27436C19.2026 6.00436 19.3923 5.81725 19.6641 5.71303C19.9358 5.60858 20.2111 5.61714 20.4897 5.73869C22.5 6.65136 24.109 8.02481 25.3167 9.85903C26.5243 11.6933 27.1281 13.7291 27.1281 15.9667C27.1281 18.2043 26.5243 20.2401 25.3167 22.0744C24.109 23.9086 22.5 25.282 20.4897 26.1947C20.2111 26.3163 19.9358 26.3248 19.6641 26.2204C19.3923 26.1161 19.2026 25.929 19.0951 25.659C19.0011 25.411 19.0147 25.1666 19.1361 24.9257C19.2574 24.6846 19.4463 24.5034 19.7027 24.382C21.3556 23.6351 22.6731 22.5048 23.6551 20.991C24.6373 19.4775 25.1284 17.8027 25.1284 15.9667ZM9.82074 19.3334H6.07707C5.73351 19.3334 5.44674 19.2184 5.21674 18.9884C4.98696 18.7586 4.87207 18.4718 4.87207 18.128V13.872C4.87207 13.5282 4.98696 13.2415 5.21674 13.0117C5.44674 12.7817 5.73351 12.6667 6.07707 12.6667H9.82074L13.8104 8.67703C14.13 8.35747 14.4978 8.28436 14.9141 8.45769C15.3303 8.63125 15.5384 8.94536 15.5384 9.40003V22.6C15.5384 23.0547 15.3303 23.3688 14.9141 23.5424C14.4978 23.7157 14.13 23.6426 13.8104 23.323L9.82074 19.3334ZM21.5384 16C21.5384 16.8307 21.3657 17.6179 21.0204 18.3617C20.6753 19.1053 20.2095 19.7308 19.6231 20.2384C19.4351 20.3633 19.2372 20.3753 19.0294 20.2744C18.8218 20.1735 18.7181 20.0068 18.7181 19.7744V12.159C18.7181 11.9266 18.8218 11.7599 19.0294 11.659C19.2372 11.5581 19.4351 11.5701 19.6231 11.695C20.2095 12.2164 20.6753 12.8565 21.0204 13.6154C21.3657 14.3745 21.5384 15.1694 21.5384 16Z" fill="white"/>
</g>
</svg>
