<svg width="32" height="32" viewBox="0 0 32 32" fill="none" xmlns="http://www.w3.org/2000/svg">
<g id="Component 9">
<path id="Vector" d="M12.2819 19.3333H8.53859C8.19481 19.3333 7.90803 19.2183 7.67825 18.9883C7.44825 18.7585 7.33325 18.4718 7.33325 18.128V13.872C7.33325 13.5282 7.44825 13.2414 7.67825 13.0116C7.90803 12.7816 8.19481 12.6666 8.53859 12.6666H12.2819L16.2716 8.67698C16.5914 8.35742 16.9594 8.28431 17.3756 8.45764C17.7918 8.6312 17.9999 8.94531 17.9999 9.39998V22.6C17.9999 23.0546 17.7918 23.3688 17.3756 23.5423C16.9594 23.7156 16.5914 23.6425 16.2716 23.323L12.2819 19.3333ZM23.9999 16C23.9999 16.8306 23.8273 17.6179 23.4819 18.3616C23.1366 19.1052 22.6708 19.7308 22.0846 20.2383C21.8966 20.3632 21.6987 20.3752 21.4909 20.2743C21.2831 20.1734 21.1793 20.0068 21.1793 19.7743V12.159C21.1793 11.9265 21.2831 11.7599 21.4909 11.659C21.6987 11.5581 21.8966 11.5701 22.0846 11.695C22.6708 12.2163 23.1366 12.8564 23.4819 13.6153C23.8273 14.3744 23.9999 15.1693 23.9999 16Z" fill="white"/>
</g>
</svg>
