<svg width="20" height="20" viewBox="0 0 20 20" fill="none" xmlns="http://www.w3.org/2000/svg">
<g id="Component 14">
<path id="Vector" d="M10.6252 9.74655V6.45801C10.6252 6.28092 10.5652 6.13245 10.4454 6.01259C10.3255 5.89287 10.177 5.83301 9.99995 5.83301C9.82273 5.83301 9.67433 5.89287 9.55475 6.01259C9.43502 6.13245 9.37516 6.28092 9.37516 6.45801V9.93884C9.37516 10.0369 9.39336 10.1319 9.42975 10.2238C9.466 10.3158 9.52315 10.4008 9.6012 10.4788L12.4554 13.333C12.5706 13.4484 12.7156 13.5075 12.8904 13.5101C13.0651 13.5127 13.2128 13.4537 13.3335 13.333C13.4542 13.2123 13.5145 13.0659 13.5145 12.8938C13.5145 12.7219 13.4542 12.5756 13.3335 12.4549L10.6252 9.74655ZM10.0016 17.9163C8.90662 17.9163 7.87738 17.7086 6.91391 17.293C5.95044 16.8775 5.11238 16.3135 4.39975 15.6011C3.68711 14.8888 3.12287 14.0511 2.70704 13.088C2.29134 12.125 2.0835 11.096 2.0835 10.0011C2.0835 8.90613 2.29127 7.8769 2.70683 6.91342C3.12238 5.94995 3.68634 5.1119 4.3987 4.39926C5.11107 3.68662 5.94877 3.12238 6.91183 2.70655C7.87488 2.29085 8.90384 2.08301 9.9987 2.08301C11.0937 2.08301 12.1229 2.29079 13.0864 2.70634C14.0499 3.1219 14.8879 3.68586 15.6006 4.39822C16.3132 5.11058 16.8775 5.94829 17.2933 6.91134C17.709 7.8744 17.9168 8.90335 17.9168 9.99822C17.9168 11.0932 17.7091 12.1225 17.2935 13.0859C16.8779 14.0494 16.314 14.8875 15.6016 15.6001C14.8893 16.3127 14.0516 16.877 13.0885 17.2928C12.1254 17.7085 11.0965 17.9163 10.0016 17.9163Z" fill="#C7C8C9"/>
</g>
</svg>
