<svg width="20" height="20" viewBox="0 0 20 20" fill="none" xmlns="http://www.w3.org/2000/svg">
<g id="Component 13">
<path id="Vector" d="M10.0016 17.9163C8.90662 17.9163 7.87738 17.7086 6.91391 17.293C5.95044 16.8775 5.11238 16.3135 4.39975 15.6011C3.68711 14.8888 3.12287 14.0511 2.70704 13.088C2.29134 12.125 2.0835 11.096 2.0835 10.0011C2.0835 8.90613 2.29127 7.8769 2.70683 6.91342C3.12238 5.94995 3.68634 5.1119 4.3987 4.39926C5.11107 3.68662 5.94877 3.12238 6.91183 2.70655C7.87488 2.29085 8.90384 2.08301 9.9987 2.08301C11.0937 2.08301 12.1229 2.29079 13.0864 2.70634C14.0499 3.1219 14.8879 3.68586 15.6006 4.39822C16.3132 5.11058 16.8775 5.94829 17.2933 6.91134C17.709 7.8744 17.9168 8.90335 17.9168 9.99822C17.9168 11.0932 17.7091 12.1225 17.2935 13.0859C16.8779 14.0494 16.314 14.8875 15.6016 15.6001C14.8893 16.3127 14.0516 16.877 13.0885 17.2928C12.1254 17.7085 11.0965 17.9163 10.0016 17.9163ZM5.27766 14.7209L10.0002 9.99967V3.33301C8.13905 3.33301 6.56266 3.97884 5.271 5.27051C3.97933 6.56217 3.3335 8.13856 3.3335 9.99967C3.3335 10.8886 3.50148 11.7414 3.83745 12.5582C4.17343 13.375 4.6535 14.0959 5.27766 14.7209Z" fill="#848588"/>
</g>
</svg>
