<svg width="20" height="20" viewBox="0 0 20 20" fill="none" xmlns="http://www.w3.org/2000/svg">
<rect x="1.75" y="1.75" width="16.5" height="16.5" rx="8.25" fill="#171719"/>
<rect x="1.75" y="1.75" width="16.5" height="16.5" rx="8.25" stroke="#171719" stroke-width="1.5"/>
<path d="M7.6665 12.9627V7.03707C7.6665 6.86107 7.72689 6.71663 7.84767 6.60374C7.96845 6.49096 8.10939 6.43457 8.2705 6.43457C8.32084 6.43457 8.37361 6.44185 8.42884 6.4564C8.48406 6.47085 8.53678 6.49263 8.587 6.52174L13.251 9.4909C13.3426 9.55335 13.4112 9.62813 13.4568 9.71524C13.5026 9.80246 13.5255 9.89735 13.5255 9.9999C13.5255 10.1025 13.5026 10.1973 13.4568 10.2846C13.4112 10.3717 13.3426 10.4465 13.251 10.5089L8.587 13.4781C8.53667 13.5072 8.48378 13.529 8.42834 13.5434C8.373 13.558 8.32017 13.5652 8.26984 13.5652C8.10862 13.5652 7.96778 13.5088 7.84734 13.3961C7.72678 13.2832 7.6665 13.1387 7.6665 12.9627Z" fill="white"/>
</svg>
