<svg width="32" height="32" viewBox="0 0 32 32" fill="none" xmlns="http://www.w3.org/2000/svg">
<g id="Component 10">
<path id="Vector" d="M12.2821 15.1286H11.1541C10.9243 15.1286 10.7344 15.0534 10.5844 14.9032C10.4342 14.7532 10.3591 14.5636 10.3591 14.3342C10.3591 14.1047 10.4342 13.9147 10.5844 13.7642C10.7344 13.6138 10.9243 13.5386 11.1541 13.5386H13.0771C13.3066 13.5386 13.4965 13.6137 13.6467 13.7639C13.7967 13.9141 13.8717 14.104 13.8717 14.3336V20.3336C13.8717 20.5631 13.7967 20.753 13.6467 20.9032C13.4967 21.0534 13.3071 21.1286 13.0777 21.1286C12.8482 21.1286 12.6582 21.0534 12.5077 20.9032C12.3573 20.753 12.2821 20.5631 12.2821 20.3336V15.1286ZM16.7951 21.1286C16.4173 21.1286 16.1006 21.0008 15.8451 20.7452C15.5895 20.4897 15.4617 20.173 15.4617 19.7952V14.8719C15.4617 14.4941 15.5895 14.1774 15.8451 13.9219C16.1006 13.6663 16.4173 13.5386 16.7951 13.5386H19.3077C19.6855 13.5386 20.0022 13.6663 20.2577 13.9219C20.5133 14.1774 20.6411 14.4941 20.6411 14.8719V19.7952C20.6411 20.173 20.5133 20.4897 20.2577 20.7452C20.0022 21.0008 19.6855 21.1286 19.3077 21.1286H16.7951ZM17.2051 19.5386H18.8974C18.9487 19.5386 18.9873 19.5258 19.0131 19.5002C19.0386 19.4747 19.0514 19.4362 19.0514 19.3849V15.2822C19.0514 15.2309 19.0386 15.1924 19.0131 15.1669C18.9873 15.1413 18.9487 15.1286 18.8974 15.1286H17.2051C17.154 15.1286 17.1155 15.1413 17.0897 15.1669C17.0642 15.1924 17.0514 15.2309 17.0514 15.2822V19.3849C17.0514 19.4362 17.0642 19.4747 17.0897 19.5002C17.1155 19.5258 17.154 19.5386 17.2051 19.5386ZM16.0007 28.6669C14.4276 28.6669 12.954 28.3694 11.5797 27.7746C10.2053 27.1797 9.00697 26.3711 7.98475 25.3489C6.96253 24.3267 6.15397 23.1286 5.55908 21.7546C4.96419 20.3806 4.66675 18.9069 4.66675 17.3336C4.66675 17.0502 4.76264 16.8128 4.95441 16.6212C5.14619 16.4294 5.38375 16.3336 5.66708 16.3336C5.95064 16.3336 6.18808 16.4294 6.37941 16.6212C6.57097 16.8128 6.66675 17.0502 6.66675 17.3336C6.66675 19.9336 7.5723 22.1391 9.38341 23.9502C11.1945 25.7613 13.4001 26.6669 16.0001 26.6669C18.6001 26.6669 20.8056 25.7613 22.6167 23.9502C24.4279 22.1391 25.3334 19.9336 25.3334 17.3336C25.3334 14.7336 24.4279 12.528 22.6167 10.7169C20.8056 8.90578 18.6001 8.00022 16.0001 8.00022H15.6461L17.0617 9.41556C17.26 9.614 17.3577 9.84611 17.3551 10.1119C17.3526 10.3777 17.2557 10.6139 17.0644 10.8206C16.8557 11.0274 16.6172 11.1343 16.3487 11.1412C16.0805 11.1481 15.843 11.0481 15.6361 10.8412L12.6387 7.83089C12.3976 7.59 12.2771 7.30889 12.2771 6.98755C12.2771 6.666 12.3976 6.38478 12.6387 6.14389L15.6617 3.13355C15.86 2.93533 16.0954 2.83744 16.3681 2.83989C16.6407 2.84256 16.8814 2.94733 17.0901 3.15422C17.2814 3.36089 17.3805 3.595 17.3874 3.85656C17.3941 4.11811 17.2941 4.35233 17.0874 4.55922L15.6461 6.00022H16.0001C17.5734 6.00022 19.0471 6.29767 20.4211 6.89256C21.7951 7.48744 22.9932 8.296 24.0154 9.31822C25.0376 10.3404 25.8462 11.5384 26.4411 12.9122C27.036 14.2862 27.3334 15.7598 27.3334 17.3329C27.3334 18.906 27.036 20.3797 26.4411 21.7539C25.8462 23.1283 25.0376 24.3267 24.0154 25.3489C22.9932 26.3711 21.7952 27.1797 20.4214 27.7746C19.0474 28.3694 17.5739 28.6669 16.0007 28.6669Z" fill="white"/>
</g>
</svg>
