<svg width="20" height="20" viewBox="0 0 20 20" fill="none" xmlns="http://www.w3.org/2000/svg">
<g id="Shape">
<path id="Vector" fill-rule="evenodd" clip-rule="evenodd" d="M15.0997 4.89982C14.0106 3.81073 12.2449 3.81074 11.1558 4.89983L8.74872 7.30688L7.68807 6.24622L10.0951 3.83916C11.77 2.1643 14.4855 2.16428 16.1604 3.83916C17.8353 5.51403 17.8353 8.22955 16.1604 9.90442L13.7533 12.3115L12.6926 11.2508L15.0997 8.84376C16.1888 7.75468 16.1888 5.98891 15.0997 4.89982ZM13.1439 7.91634L7.91657 13.1437L6.85591 12.083L12.0832 6.85568L13.1439 7.91634ZM6.47723 9.58534L4.90006 11.1556C3.8114 12.2447 3.81112 14.0106 4.90006 15.0995C5.98895 16.1884 7.75427 16.1886 8.8434 15.1001L10.4142 13.5224L11.4772 14.5807L9.9058 16.159L9.90464 16.1602C8.22978 17.8351 5.51427 17.8351 3.8394 16.1602C2.16453 14.4853 2.16454 11.7698 3.8394 10.0949L5.41891 8.52235L6.47723 9.58534Z" fill="#848588"/>
</g>
</svg>
