<svg width="40" height="40" viewBox="0 0 40 40" fill="none" xmlns="http://www.w3.org/2000/svg">
<g clip-path="url(#clip0_3681_16148)">
<path d="M17.2731 30C17.0318 30 16.8005 29.9042 16.6299 29.7336C16.4594 29.563 16.3636 29.3317 16.3636 29.0905C16.3636 28.8493 16.4594 28.618 16.6299 28.4474C16.8005 28.2768 17.0318 28.181 17.2731 28.181H19.0901V26.3C17.3343 26.0775 15.7197 25.2228 14.5485 23.8959C13.3773 22.569 12.7298 20.8608 12.7271 19.091C12.7271 18.8499 12.8228 18.6187 12.9933 18.4482C13.1638 18.2778 13.395 18.182 13.6361 18.182C13.8771 18.182 14.1083 18.2778 14.2788 18.4482C14.4493 18.6187 14.5451 18.8499 14.5451 19.091C14.5451 20.5378 15.1198 21.9253 16.1428 22.9483C17.1658 23.9713 18.5533 24.546 20.0001 24.546C21.4468 24.546 22.8343 23.9713 23.8573 22.9483C24.8803 21.9253 25.4551 20.5378 25.4551 19.091C25.4629 18.8553 25.562 18.6318 25.7315 18.4678C25.9011 18.3038 26.1277 18.2121 26.3636 18.2121C26.5994 18.2121 26.826 18.3038 26.9956 18.4678C27.1651 18.6318 27.2642 18.8553 27.2721 19.091C27.2691 20.8608 26.6215 22.5689 25.4503 23.8957C24.2792 25.2226 22.6648 26.0773 20.9091 26.3V28.182H22.7271C22.9681 28.182 23.1993 28.2778 23.3698 28.4482C23.5403 28.6187 23.6361 28.8499 23.6361 29.091C23.6361 29.3321 23.5403 29.5633 23.3698 29.7338C23.1993 29.9042 22.9681 30 22.7271 30H17.2731ZM16.3641 19.091V13.636C16.3641 12.6717 16.7471 11.7468 17.429 11.065C18.1109 10.3831 19.0357 10 20.0001 10C20.9644 10 21.8892 10.3831 22.5711 11.065C23.253 11.7468 23.6361 12.6717 23.6361 13.636V19.091C23.6361 20.0553 23.253 20.9802 22.5711 21.662C21.8892 22.3439 20.9644 22.727 20.0001 22.727C19.0357 22.727 18.1109 22.3439 17.429 21.662C16.7471 20.9802 16.3641 20.0553 16.3641 19.091Z" fill="#2257E2"/>
</g>
<defs>
<clipPath id="clip0_3681_16148">
<rect width="40" height="40" fill="white"/>
</clipPath>
</defs>
</svg>
