<svg width="40" height="40" viewBox="0 0 40 40" fill="none" xmlns="http://www.w3.org/2000/svg">
<g clip-path="url(#clip0_3997_27998)">
<path d="M20 29.9595C20.4818 29.9595 20.8856 29.7965 21.2116 29.4705C21.5375 29.1446 21.7005 28.7407 21.7005 28.2589C21.7005 27.7772 21.5375 27.3733 21.2116 27.0474C20.8856 26.7218 20.4818 26.5589 20 26.5589C19.5182 26.5589 19.1144 26.7218 18.7884 27.0474C18.4625 27.3733 18.2995 27.7772 18.2995 28.2589C18.2995 28.7407 18.4625 29.1446 18.7884 29.4705C19.1144 29.7965 19.5182 29.9595 20 29.9595ZM20.0005 22.2674C20.4482 22.2674 20.8232 22.116 21.1253 21.8132C21.4277 21.5107 21.5789 21.1358 21.5789 20.6884V11.2147C21.5789 10.7674 21.4275 10.3923 21.1247 10.0895C20.8219 9.78702 20.4468 9.63579 19.9995 9.63579C19.5518 9.63579 19.1768 9.78702 18.8747 10.0895C18.5723 10.3923 18.4211 10.7674 18.4211 11.2147V20.6884C18.4211 21.1358 18.5725 21.5107 18.8753 21.8132C19.1781 22.116 19.5532 22.2674 20.0005 22.2674ZM20.0037 40C17.2374 40 14.6372 39.4751 12.2032 38.4253C9.76912 37.3754 7.65193 35.9507 5.85158 34.1511C4.05123 32.3514 2.62579 30.2351 1.57526 27.8021C0.525087 25.3691 0 22.7696 0 20.0037C0 17.2374 0.524912 14.6372 1.57474 12.2032C2.62456 9.76912 4.0493 7.65193 5.84895 5.85158C7.6486 4.05123 9.76491 2.62579 12.1979 1.57526C14.6309 0.525087 17.2304 0 19.9963 0C22.7626 0 25.3628 0.524911 27.7968 1.57474C30.2309 2.62456 32.3481 4.0493 34.1484 5.84895C35.9488 7.6486 37.3742 9.76491 38.4247 12.1979C39.4749 14.6309 40 17.2304 40 19.9963C40 22.7626 39.4751 25.3628 38.4253 27.7968C37.3754 30.2309 35.9507 32.3481 34.1511 34.1484C32.3514 35.9488 30.2351 37.3742 27.8021 38.4247C25.3691 39.4749 22.7696 40 20.0037 40Z" fill="url(#paint0_linear_3997_27998)"/>
</g>
<defs>
<linearGradient id="paint0_linear_3997_27998" x1="20" y1="0" x2="20" y2="40" gradientUnits="userSpaceOnUse">
<stop stop-color="#2257E2"/>
<stop offset="1" stop-color="#2887DF"/>
</linearGradient>
<clipPath id="clip0_3997_27998">
<rect width="40" height="40" fill="white"/>
</clipPath>
</defs>
</svg>
